<?xml version="1.0" encoding="UTF-8" standalone="no"?>
<!-- Generator: Adobe Illustrator 16.0.0, SVG Export Plug-In . SVG Version: 6.00 Build 0)  -->

<svg
   xmlns:dc="http://purl.org/dc/elements/1.1/"
   xmlns:cc="http://creativecommons.org/ns#"
   xmlns:rdf="http://www.w3.org/1999/02/22-rdf-syntax-ns#"
   xmlns:svg="http://www.w3.org/2000/svg"
   xmlns="http://www.w3.org/2000/svg"
   xmlns:sodipodi="http://sodipodi.sourceforge.net/DTD/sodipodi-0.dtd"
   xmlns:inkscape="http://www.inkscape.org/namespaces/inkscape"
   version="1.1"
   id="Layer_2"
   x="0px"
   y="0px"
   width="500px"
   height="500px"
   viewBox="0 0 500 500"
   enable-background="new 0 0 500 500"
   xml:space="preserve"
   inkscape:version="0.91 r13725"
   sodipodi:docname="lak.svg"><metadata
     id="metadata685"><rdf:RDF><cc:Work
         rdf:about=""><dc:format>image/svg+xml</dc:format><dc:type
           rdf:resource="http://purl.org/dc/dcmitype/StillImage" /></cc:Work></rdf:RDF></metadata><defs
     id="defs683" /><sodipodi:namedview
     pagecolor="#ffffff"
     bordercolor="#666666"
     borderopacity="1"
     objecttolerance="10"
     gridtolerance="10"
     guidetolerance="10"
     inkscape:pageopacity="0"
     inkscape:pageshadow="2"
     inkscape:window-width="1440"
     inkscape:window-height="837"
     id="namedview681"
     showgrid="false"
     inkscape:zoom="0.472"
     inkscape:cx="-13.771186"
     inkscape:cy="250"
     inkscape:window-x="-8"
     inkscape:window-y="-8"
     inkscape:window-maximized="1"
     inkscape:current-layer="Layer_2" /><g
     id="g3"
     style="fill:none;stroke:#000000;stroke-opacity:1"><g
       id="g5"
       style="fill:none;stroke:#000000;stroke-opacity:1"><path
         d="M165.909,295.307c-6.135,5.334-15.458,7.414-22.908,3.711c-6.12-3.043-9.43-11.386-11.039-17.573    c-3.315-12.756,0.985-27.147,15.357-29.497c1.271-0.208,0.73-2.135-0.531-1.929c-16.632,2.719-20.285,19.847-16.187,34.023    c1.894,6.552,6.062,14.694,12.763,17.366c8.07,3.219,17.51,0.921,23.959-4.688C168.298,295.873,166.877,294.465,165.909,295.307    L165.909,295.307z"
         id="path7"
         style="fill:none;stroke:#000000;stroke-opacity:1" /></g></g><g
     id="g9"
     style="fill:none;stroke:#000000;stroke-opacity:1"><g
       id="g11"
       style="fill:none;stroke:#000000;stroke-opacity:1"><path
         d="M44.459,272.317c16.862,5.562,33.327,12.2,49.836,18.714c12.97,5.117,26.119,10.578,39.823,13.408    c0.795,0.165,1.654-0.686,1.129-1.469c-10.99-16.409-18.92-41.79,1.312-54.762c6.266-4.017,14.229-5.313,21.406-3.367    c3.754,1.018,7.377,3.246,9.696,6.396c4.183,5.681,2.917,15.288,3.146,21.923c0.044,1.286,2.044,1.29,2,0    c-0.387-11.272,0.646-24.156-11.552-29.252c-7.681-3.209-16.281-2.254-23.625,1.396c-8.224,4.087-13.731,12.05-15.379,20.979    c-2.472,13.387,4.037,26.899,11.27,37.698c0.376-0.49,0.753-0.979,1.129-1.469c-13.707-2.832-26.845-8.303-39.823-13.409    c-16.516-6.5-32.972-13.151-49.836-18.713C43.762,269.984,43.24,271.916,44.459,272.317L44.459,272.317z"
         id="path13"
         style="fill:none;stroke:#000000;stroke-opacity:1" /></g></g><g
     id="g15"
     style="fill:none;stroke:#000000;stroke-opacity:1"><g
       id="g17"
       style="fill:none;stroke:#000000;stroke-opacity:1"><path
         d="M152.374,266.569c-5.818-0.592-9.811,4.013-10.241,9.535c-0.484,6.218,7.065,9.916,11.724,11.869    c19.493,8.176,40.043,14.431,58.688,24.473c1.135,0.611,2.146-1.115,1.01-1.727c-14.027-7.556-29.152-12.563-43.903-18.463    c-5.772-2.309-11.749-4.53-17.371-7.184c-3.15-1.486-6.478-3.507-7.83-6.875c-2.033-5.064,3.089-10.12,7.923-9.629    C153.657,268.7,153.644,266.698,152.374,266.569L152.374,266.569z"
         id="path19"
         style="fill:none;stroke:#000000;stroke-opacity:1" /></g></g><g
     id="g21"
     style="fill:none;stroke:#000000;stroke-opacity:1"><g
       id="g23"
       style="fill:none;stroke:#000000;stroke-opacity:1"><path
         d="M154.523,269.637c22.924,10.84,46.551,20.027,69.888,29.916c1.173,0.497,2.194-1.225,1.01-1.727    c-23.336-9.889-46.965-19.077-69.888-29.916C154.374,267.362,153.358,269.086,154.523,269.637L154.523,269.637z"
         id="path25"
         style="fill:none;stroke:#000000;stroke-opacity:1" /></g></g><g
     id="g27"
     style="fill:none;stroke:#000000;stroke-opacity:1"><g
       id="g29"
       style="fill:none;stroke:#000000;stroke-opacity:1"><path
         d="M148.523,280.637c22.254,10.522,45.233,19.32,67.888,28.916c1.173,0.497,2.194-1.226,1.01-1.727    c-22.654-9.596-45.634-18.395-67.888-28.916C148.374,278.362,147.358,280.086,148.523,280.637L148.523,280.637z"
         id="path31"
         style="fill:none;stroke:#000000;stroke-opacity:1" /></g></g><g
     id="g33"
     style="fill:none;stroke:#000000;stroke-opacity:1"><g
       id="g35"
       style="fill:none;stroke:#000000;stroke-opacity:1"><path
         d="M236.569,303.425c7.207,1.295,14.553,1.746,21.628,3.731c3.645,1.021,7.073,2.677,9.647,5.501    c3.667,4.021,3.369,9.562-1.26,12.424c-6.472,4.001-16.376,0.351-22.858-1.831c-6.815-2.292-13.415-5.652-20.461-7.193    c-1.257-0.275-1.791,1.652-0.531,1.928c8.979,1.965,17.309,6.478,26.163,8.962c7.062,1.982,16.041,3.343,21.645-2.521    c5.312-5.56-0.665-13.783-5.868-16.808c-8.104-4.71-18.587-4.506-27.573-6.12C235.84,301.271,235.301,303.197,236.569,303.425    L236.569,303.425z"
         id="path37"
         style="fill:none;stroke:#000000;stroke-opacity:1" /></g></g><g
     id="g39"
     style="fill:none;stroke:#000000;stroke-opacity:1"><g
       id="g41"
       style="fill:none;stroke:#000000;stroke-opacity:1"><path
         d="M39.089,265.292c-16.149-8.658-15.217-31.464-6.914-45.261c4.822-8.013,13.094-13.435,22.429-14.305    c6.789-0.633,13.893,0.629,20.559,1.742c19.32,3.225,38.432,8.553,56.905,15.015c8.286,2.898,16.515,6.124,24.284,10.231    c8.737,4.619,14.054,11.057,17.416,20.539c2.385,6.728,3.001,13.965,2.512,21.043c-0.089,1.288,1.912,1.279,2,0    c0.804-11.632-1.597-24.542-8.948-33.922c-4.172-5.325-9.901-8.462-15.905-11.378c-16.869-8.193-35.28-13.59-53.396-18.215    c-14.412-3.68-30.914-8.407-45.964-7.003c-16.294,1.52-26.971,15.868-29.322,31.159c-1.868,12.151,1.916,25.961,13.335,32.083    C39.216,267.628,40.226,265.901,39.089,265.292L39.089,265.292z"
         id="path43"
         style="fill:none;stroke:#000000;stroke-opacity:1" /></g></g><g
     id="g45"
     style="fill:none;stroke:#000000;stroke-opacity:1"><g
       id="g47"
       style="fill:none;stroke:#000000;stroke-opacity:1"><path
         d="M331.479,319.437c11.051,3.131,24.125-0.289,31.188-9.672c5.666-7.527,5.39-17.908,2.596-26.462    c-7.387-22.616-31.608-33.637-53.678-26.023c-1.212,0.418-0.691,2.35,0.531,1.928c20.786-7.169,42.496,2.509,50.655,23.071    c3.121,7.864,3.589,17.072-0.621,24.615c-5.663,10.149-19.643,13.588-30.141,10.615    C330.767,317.156,330.239,319.086,331.479,319.437L331.479,319.437z"
         id="path49"
         style="fill:none;stroke:#000000;stroke-opacity:1" /></g></g><g
     id="g51"
     style="fill:none;stroke:#000000;stroke-opacity:1"><g
       id="g53"
       style="fill:none;stroke:#000000;stroke-opacity:1"><path
         d="M326.701,265.657c-12.376-1.128-25.217,2.951-25.609,17.216c-0.354,12.894,9.101,25.406,19.341,32.231    c1.077,0.718,2.077-1.016,1.01-1.727c-9.586-6.39-17.402-17.141-18.309-28.879c-1.083-14.043,11.933-17.901,23.567-16.842    C327.986,267.774,327.975,265.773,326.701,265.657L326.701,265.657z"
         id="path55"
         style="fill:none;stroke:#000000;stroke-opacity:1" /></g></g><g
     id="g57"
     style="fill:none;stroke:#000000;stroke-opacity:1"><g
       id="g59"
       style="fill:none;stroke:#000000;stroke-opacity:1"><path
         d="M300.508,254.108c-12.762-6.748-24.644-17.284-23.946-32.881c0.631-14.091,10.849-26.589,20.41-36.026    c12.213-12.052,26.945-21.59,42.244-29.233c14.402-7.196,30.186-12.967,46.305-14.505c17.743-1.693,34.759,5.686,48.906,15.925    c18.024,13.045,31.663,32.226,39.257,53.03c7.393,20.25,8.347,43.084-0.462,63.037c-10.179,23.059-31.638,34.812-56.125,35.808    c-11.087,0.451-22.205-1.103-33.051-3.267c-1.259-0.252-1.796,1.676-0.531,1.928c20.352,4.062,42.166,5.823,61.644-2.723    c19.453-8.535,31.537-28.118,35.229-48.457c7.229-39.836-16.471-82.169-49.056-103.939c-13.521-9.033-29.455-14.729-45.811-13.342    c-15.144,1.284-29.911,6.616-43.597,12.985c-15.209,7.078-29.598,16.26-42.153,27.401c-10.182,9.035-19.846,20.18-23.826,33.449    c-5.781,19.27,7.457,34.026,23.554,42.537C300.638,256.438,301.648,254.711,300.508,254.108L300.508,254.108z"
         id="path61"
         style="fill:none;stroke:#000000;stroke-opacity:1" /></g></g><g
     id="g63"
     style="fill:none;stroke:#000000;stroke-opacity:1"><g
       id="g65"
       style="fill:none;stroke:#000000;stroke-opacity:1"><path
         d="M300.51,206.669c33.387-1.345,68.746-0.603,100.568,10.596c14.99,5.275,29.922,14.091,36.824,29.034    c4.103,8.883,4.397,19.315,1.709,28.618c-3.205,11.087-12.263,18.749-22.734,22.751c-7.69,2.939-16.08,3.769-24.255,3.56    c-1.29-0.033-1.287,1.967,0,2c18.721,0.479,39.279-5.624,47.518-23.988c6.586-14.682,2.961-32.318-7.191-44.335    c-10.073-11.922-25.682-18.253-40.312-22.409c-17.149-4.871-35.123-6.821-52.879-7.737c-13.068-0.674-26.175-0.615-39.247-0.088    C299.225,204.721,299.22,206.721,300.51,206.669L300.51,206.669z"
         id="path67"
         style="fill:none;stroke:#000000;stroke-opacity:1" /></g></g><g
     id="g69"
     style="fill:none;stroke:#000000;stroke-opacity:1"><g
       id="g71"
       style="fill:none;stroke:#000000;stroke-opacity:1"><path
         d="M319.35,249.74c9.767-4.324,21.806-1.284,31.166,2.698c9.02,3.838,20.259,11.144,21.532,21.791    c0.151,1.264,2.153,1.279,2,0c-1.34-11.201-12.005-18.569-21.414-23.02c-10.159-4.805-23.57-7.944-34.294-3.196    C317.163,248.534,318.182,250.257,319.35,249.74L319.35,249.74z"
         id="path73"
         style="fill:none;stroke:#000000;stroke-opacity:1" /></g></g><g
     id="g75"
     style="fill:none;stroke:#000000;stroke-opacity:1"><g
       id="g77"
       style="fill:none;stroke:#000000;stroke-opacity:1"><path
         d="M375.837,251.333c13.73,12.256,42.755,17.469,56.492,2.621c0.874-0.945-0.536-2.362-1.414-1.414    c-12.943,13.989-40.718,8.935-53.664-2.622C376.292,249.062,374.873,250.472,375.837,251.333L375.837,251.333z"
         id="path79"
         style="fill:none;stroke:#000000;stroke-opacity:1" /></g></g><g
     id="g81"
     style="fill:none;stroke:#000000;stroke-opacity:1"><g
       id="g83"
       style="fill:none;stroke:#000000;stroke-opacity:1"><path
         d="M448.064,241.715c9.667-11.196,8.222-26.245,8.162-40.048c-0.006-1.29-2.006-1.29-2,0    c0.057,13.158,1.667,27.929-7.576,38.634C445.812,241.272,447.221,242.693,448.064,241.715L448.064,241.715z"
         id="path85"
         style="fill:none;stroke:#000000;stroke-opacity:1" /></g></g><g
     id="g87"
     style="fill:none;stroke:#000000;stroke-opacity:1"><g
       id="g89"
       style="fill:none;stroke:#000000;stroke-opacity:1"><path
         d="M333.668,307.885c7.817,1.457,15.616,0.025,20.853-6.344c0.812-0.987-0.595-2.411-1.414-1.414    c-4.784,5.82-11.754,7.163-18.907,5.83C332.939,305.722,332.401,307.649,333.668,307.885L333.668,307.885z"
         id="path91"
         style="fill:none;stroke:#000000;stroke-opacity:1" /></g></g><g
     id="g93"
     style="fill:none;stroke:#000000;stroke-opacity:1"><g
       id="g95"
       style="fill:none;stroke:#000000;stroke-opacity:1"><path
         d="M333.934,304.921c1.29,0,1.29-2,0-2S332.644,304.921,333.934,304.921L333.934,304.921z"
         id="path97"
         style="fill:none;stroke:#000000;stroke-opacity:1" /></g></g><g
     id="g99"
     style="fill:none;stroke:#000000;stroke-opacity:1"><g
       id="g101"
       style="fill:none;stroke:#000000;stroke-opacity:1"><path
         d="M310.851,285.972c0.983,7.616,5.861,13.441,12.137,17.551c1.083,0.709,2.084-1.023,1.01-1.727    c-5.605-3.672-10.262-8.971-11.146-15.824C312.688,284.711,310.686,284.695,310.851,285.972L310.851,285.972z"
         id="path103"
         style="fill:none;stroke:#000000;stroke-opacity:1" /></g></g><g
     id="g105"
     style="fill:none;stroke:#000000;stroke-opacity:1"><g
       id="g107"
       style="fill:none;stroke:#000000;stroke-opacity:1"><path
         d="M332.633,319.637c-0.924-7.936,0.656-14.164,5.823-20.314c3.256-3.874,6.931-7.12,9.682-11.414    c1.351-2.109,3.584-6.011,2.169-8.591c-1.72-3.136-5.924-2.369-8.837-1.832c-1.268,0.233-0.729,2.16,0.531,1.928    c1.728-0.317,6.303-1.438,6.675,1.494c0.226,1.775-0.98,3.736-1.795,5.206c-2.059,3.716-5.051,6.693-7.962,9.725    c-6.651,6.925-9.404,14.201-8.286,23.799C330.78,320.902,332.782,320.916,332.633,319.637L332.633,319.637z"
         id="path109"
         style="fill:none;stroke:#000000;stroke-opacity:1" /></g></g><g
     id="g111"
     style="fill:none;stroke:#000000;stroke-opacity:1"><g
       id="g113"
       style="fill:none;stroke:#000000;stroke-opacity:1"><path
         d="M322.628,299.151c-2.383,5.274-2.662,10.495-2.691,16.207c-0.036,7.208-0.356,14.406-8.371,16.512    c-7.294,1.915-18.483-0.526-23.77,6.31c-3.075,3.977,1.009,8.938,3.018,12.326c1.956,3.299-4.277,2.564-6.549,3.186    c-2.873,0.786-5.441,2.469-7.193,4.87c-3.578,4.904,1.357,9.87,5.842,11.503c11.303,4.114,25.663,3.413,37.441,2.383    c10.526-0.92,22.378-3.261,28.535-12.717c5.81-8.923-0.957-18.224-7.106-24.633c-4.497-4.686-8.096-9.129-9.187-15.727    c-0.209-1.271-2.137-0.729-1.928,0.531c1.609,9.744,8.879,14.729,14.54,22.114c4.18,5.453,5.063,11.929,1.251,17.783    c-3.941,6.054-11.644,8.157-18.262,9.528c-12.699,2.63-27.023,2.304-39.792,0.188c-3.751-0.622-9.923-2.351-10.499-6.906    c-0.518-4.088,4.746-6.403,7.831-7.247c2.687-0.734,9.753,0.023,7.27-4.976c-0.98-1.975-2.33-3.739-3.353-5.693    c-2.49-4.76,1.209-7.205,5.508-8.572c7.365-2.343,16.212-0.029,22.654-5.053c2.719-2.12,3.479-6.023,3.793-9.223    c0.723-7.369-0.397-14.729,2.744-21.685C324.881,298.995,323.158,297.978,322.628,299.151L322.628,299.151z"
         id="path115"
         style="fill:none;stroke:#000000;stroke-opacity:1" /></g></g><g
     id="g117"
     style="fill:none;stroke:#000000;stroke-opacity:1"><g
       id="g119"
       style="fill:none;stroke:#000000;stroke-opacity:1"><path
         d="M341.417,277.742c-6.837,6.438-14.241,13.062-18.789,21.409c-0.617,1.133,1.109,2.143,1.727,1.01    c4.465-8.192,11.762-14.682,18.477-21.005C343.771,278.271,342.354,276.859,341.417,277.742L341.417,277.742z"
         id="path121"
         style="fill:none;stroke:#000000;stroke-opacity:1" /></g></g><g
     id="g123"
     style="fill:none;stroke:#000000;stroke-opacity:1"><g
       id="g125"
       style="fill:none;stroke:#000000;stroke-opacity:1"><path
         d="M226.247,313.626c8.172,2.049,15.686,5.729,23.229,9.395c4.926,2.394,10.357,4.788,15.682,2.369    c1.173-0.532,0.155-2.256-1.01-1.727c-6.166,2.801-13.583-2.338-19-4.958c-5.92-2.862-11.979-5.405-18.37-7.007    C225.527,311.384,224.997,313.312,226.247,313.626L226.247,313.626z"
         id="path127"
         style="fill:none;stroke:#000000;stroke-opacity:1" /></g></g><g
     id="g129"
     style="fill:none;stroke:#000000;stroke-opacity:1"><g
       id="g131"
       style="fill:none;stroke:#000000;stroke-opacity:1"><path
         d="M233.489,309.936c6.517,2.247,12.774,5.067,18.908,8.202c4.059,2.074,8.411,4.241,13,2.77    c1.224-0.392,0.7-2.323-0.531-1.928c-5.493,1.761-11.34-2.567-16.104-4.886c-4.785-2.328-9.713-4.353-14.742-6.086    C232.798,307.586,232.277,309.519,233.489,309.936L233.489,309.936z"
         id="path133"
         style="fill:none;stroke:#000000;stroke-opacity:1" /></g></g><g
     id="g135"
     style="fill:none;stroke:#000000;stroke-opacity:1"><g
       id="g137"
       style="fill:none;stroke:#000000;stroke-opacity:1"><path
         d="M229.569,311.101c6.624,1.232,39.156,21.73,38.527,4.229c-0.621,0.168-1.242,0.337-1.863,0.505    c-0.551,1.068-1.102,2.138-1.652,3.207c-1.249,0.317-0.719,2.246,0.531,1.928c3.194-0.812,4.532-3.181,2.848-6.145    c-0.483-0.85-1.899-0.498-1.863,0.505c0.477,13.272-30.065-5.055-35.996-6.157C228.84,308.938,228.302,310.865,229.569,311.101    L229.569,311.101z"
         id="path139"
         style="fill:none;stroke:#000000;stroke-opacity:1" /></g></g><g
     id="g141"
     style="fill:none;stroke:#000000;stroke-opacity:1"><g
       id="g143"
       style="fill:none;stroke:#000000;stroke-opacity:1"><path
         d="M273.295,248.268c3.938,10.604,9.335,22.681,18.817,29.447c1.053,0.751,2.05-0.984,1.01-1.727    c-8.963-6.396-14.181-18.243-17.899-28.251C274.778,246.539,272.845,247.057,273.295,248.268L273.295,248.268z"
         id="path145"
         style="fill:none;stroke:#000000;stroke-opacity:1" /></g></g><g
     id="g147"
     style="fill:none;stroke:#000000;stroke-opacity:1"><g
       id="g149"
       style="fill:none;stroke:#000000;stroke-opacity:1"><path
         d="M375.305,252.006c3.274,5.644,4.906,12.416,7.112,18.543c2.812,7.811,3.244,15.605,0.124,23.416    c-0.479,1.198,1.456,1.714,1.928,0.531c2.778-6.952,2.962-14.291,0.947-21.47c-2.031-7.24-4.615-15.533-8.385-22.03    C376.385,249.881,374.656,250.888,375.305,252.006L375.305,252.006z"
         id="path151"
         style="fill:none;stroke:#000000;stroke-opacity:1" /></g></g><g
     id="g153"
     style="fill:none;stroke:#000000;stroke-opacity:1"><g
       id="g155"
       style="fill:none;stroke:#000000;stroke-opacity:1"><path
         d="M152.25,251.25c-0.083,0.833-0.167,1.667-0.25,2.5c-0.082,0.815,0.894,1.164,1.505,0.863    c1.271-0.624,2.191-1.188,3.202-2.156c-0.569-0.235-1.138-0.472-1.707-0.707c0.105,1.002,0.034,1.997-0.214,2.984    c-0.312,1.281,1.463,1.705,1.929,0.531c0.581-0.853,1.162-1.706,1.743-2.559c-0.557-0.147-1.114-0.294-1.671-0.441    c0.274,1.703,0.055,3.294-0.036,4.984c-0.058,1.073,1.335,1.255,1.863,0.505c0.759-1.078,1.491-2.173,2.25-3.25    c-0.523,0.067-1.047,0.135-1.57,0.202c0.431,1.613,0.212,3.043-0.656,4.288c0.576,0.337,1.151,0.673,1.727,1.01    c0.382-1.112,1.096-1.992,2.142-2.642c-0.456-0.119-0.912-0.239-1.368-0.358c1.186,2.528-0.439,3.937-1.844,5.538    c-0.851,0.971,0.445,2.271,1.414,1.414c0.591-0.507,1.167-1.031,1.728-1.572c0.686-1.141,1.193-1.042,1.521,0.297    c-0.783,1.457-2.355,2.597-3.414,3.861c-0.431,0.515-0.369,1.535,0.441,1.671c2.708,0.457,4.228-0.716,5.973-2.757    c-0.523-0.067-1.047-0.135-1.57-0.202c1.03,1.632-1.433,3.588-2.25,4.74c-0.372,0.524,0.008,1.324,0.598,1.469    c1.81,0.446,2.682,0.177,4.271-0.851c-0.502-0.288-1.003-0.575-1.505-0.863c-0.236,0.515-0.471,1.028-0.707,1.543    c-0.879,0.941,0.532,2.358,1.414,1.414c0.927-0.993,1.322-1.602,1.293-2.957c-0.016-0.727-0.849-1.288-1.505-0.863    c-0.91,0.216-1.819,0.433-2.729,0.649c0.199,0.489,0.398,0.979,0.598,1.469c1.63-2.3,4.092-3.843,2.25-6.76    c-0.322-0.51-1.136-0.711-1.57-0.202c-1.044,1.221-1.996,2.585-4.027,2.243c0.147,0.557,0.294,1.114,0.441,1.671    c2.223-2.654,6.422-5.669,3.25-9.164c-0.289-0.318-0.852-0.393-1.212-0.156c-1.725,1.132-3.16,2.543-4.702,3.906    c0.471,0.472,0.943,0.942,1.414,1.414c2.256-2.572,3.705-4.659,2.156-7.962c-0.23-0.491-0.932-0.618-1.368-0.358    c-1.437,0.854-2.157,1.834-2.858,3.358c-0.529,1.15,1.09,2.155,1.727,1.01c1.325-2.386,2.162-4.421,0.344-6.712    c-0.432-0.544-1.238-0.271-1.57,0.202c-0.759,1.078-1.491,2.173-2.25,3.25c0.621,0.168,1.242,0.337,1.863,0.505    c0.102-1.904,0.267-3.632-0.036-5.516c-0.122-0.755-1.191-0.944-1.671-0.441c-1.043,1.092-1.699,2.035-2.257,3.441    c0.643,0.177,1.286,0.354,1.929,0.531c0.306-1.253,0.345-2.217,0.286-3.516c-0.04-0.869-1.061-1.327-1.707-0.707    c-0.818,0.799-1.751,1.413-2.798,1.844c0.502,0.288,1.003,0.575,1.505,0.863c0.083-0.833,0.167-1.667,0.25-2.5    C154.378,249.967,152.377,249.979,152.25,251.25L152.25,251.25z"
         id="path157"
         style="fill:none;stroke:#000000;stroke-opacity:1" /></g></g><g
     id="g159"
     style="fill:none;stroke:#000000;stroke-opacity:1"><g
       id="g161"
       style="fill:none;stroke:#000000;stroke-opacity:1"><path
         d="M346.127,277.96c-8.16,8.441-16.854,16.841-20.729,28.219c-1.734,5.095-1.507,10.419-0.533,15.632    c1.174,6.28,4.089,10.253,8.674,14.514c3.241,3.012,6.452,6.272,9.005,9.889c1.591,2.253,2.995,5.111,1.645,7.82    c-1.872,3.754-9.388,5.225-13.016,6.357c-7.46,2.329-14.808,5.073-22.414,6.885c-2.753,0.655-5.601,1.062-8.287,1.954    c-1,0.332-7.646,2.766-6.673-0.463c0.373-1.238-1.557-1.763-1.928-0.531c-0.94,3.121,0.784,4.479,3.839,4.245    c1.803-0.139,3.587-0.765,5.293-1.322c3.841-1.255,7.94-1.841,11.861-2.832c8.462-2.14,17.319-5.102,25.438-8.313    c4.164-1.648,8.644-3.77,8.448-8.816c-0.169-4.35-4.14-8.398-6.91-11.37c-5.112-5.485-10.652-9.407-12.699-17.023    c-4.878-18.148,8.919-31.552,20.4-43.429C348.438,278.447,347.024,277.031,346.127,277.96L346.127,277.96z"
         id="path163"
         style="fill:none;stroke:#000000;stroke-opacity:1" /></g></g><g
     id="g165"
     style="fill:none;stroke:#000000;stroke-opacity:1"><g
       id="g167"
       style="fill:none;stroke:#000000;stroke-opacity:1"><path
         d="M282.162,355.471c-3.078,2.356-1.454,6.42,0.002,9.298c2.079,4.111,6.577,6.736,11.17,6.732c1.29-0.001,1.29-2.001,0-2    c-3.126,0.003-6.782-1.559-8.566-4.232c-1.128-1.691-3.841-6.353-1.596-8.071C284.181,356.425,283.187,354.687,282.162,355.471    L282.162,355.471z"
         id="path169"
         style="fill:none;stroke:#000000;stroke-opacity:1" /></g></g><g
     id="g171"
     style="fill:none;stroke:#000000;stroke-opacity:1"><g
       id="g173"
       style="fill:none;stroke:#000000;stroke-opacity:1"><path
         d="M295.995,333.638c-2.779,1.951-4.55,4.798-4.068,8.327c0.309,2.261,1.027,4.105,2.21,6.041    c3.089,5.057-1.67,5.522-5.59,5.736c-2.142,0.116-7.033,0.717-6.897,3.887c0.164,3.796,3.346,7.294,6.282,9.428    c3.567,2.591,9.477,1.008,13.331,0.183c7.432-1.59,14.663-4.041,21.996-6.016c7.647-2.06,16.575-5.547,16.741-14.723    c0.023-1.29-1.977-1.288-2,0c-0.156,8.642-9.476,11.233-16.368,13.089c-4.564,1.229-9.086,2.615-13.639,3.889    c-5.297,1.48-11.302,3.483-16.853,2.681c-2.713-0.393-4.554-2.902-6.079-4.935c-3.01-4.01,2.072-5.405,4.855-5.558    c2.151-0.117,5.424-0.3,6.957-2.126c0.869-1.034,2.101-2.512,1.073-3.94c-3.104-4.315-6.909-10.048-0.942-14.236    C298.052,334.63,297.054,332.895,295.995,333.638L295.995,333.638z"
         id="path175"
         style="fill:none;stroke:#000000;stroke-opacity:1" /></g></g><g
     id="g177"
     style="fill:none;stroke:#000000;stroke-opacity:1"><g
       id="g179"
       style="fill:none;stroke:#000000;stroke-opacity:1"><path
         d="M343.627,277.626c-0.5,0.444-1,0.89-1.5,1.334c-0.667,0.594-0.128,1.707,0.707,1.707c0.167,0,0.333,0,0.5,0    c-0.089-0.654-0.177-1.31-0.266-1.964c-1.882,0.67-3.229,1.53-4.432,3.125c-0.562,0.744,0.358,1.665,1.129,1.469    c1.212-0.308,2.28-0.74,3.406-1.267c1.042-0.487,0.299-2.14-0.771-1.827c-2.942,0.857-5.588,2.256-7.774,4.423    c-0.748,0.741,0.026,1.862,0.973,1.671c1.819-0.367,3.484-0.791,5.072-1.767c0.785-0.482,0.538-1.973-0.505-1.863    c-3.783,0.396-8.23,3.576-10.363,6.661c-0.443,0.641,0.15,1.502,0.863,1.505c5.743,0.021,9.066-4.025,12.196-8.328    c0.701-0.963-0.768-1.931-1.57-1.212c-4.293,3.842-9.159,7-13,11.333c-0.735,0.83,0.199,2.171,1.212,1.57    c1.853-1.098,3.552-2.399,5.5-3.333c-0.404-0.523-0.808-1.047-1.212-1.57c-2.34,2.189-8.741,3.646-8.459,7.707    c0.089,1.279,2.09,1.288,2,0c-0.186-2.671,6.164-4.693,7.873-6.293c0.875-0.819-0.233-2.039-1.212-1.57    c-1.948,0.933-3.646,2.235-5.5,3.333c0.404,0.523,0.808,1.047,1.212,1.57c3.841-4.333,8.707-7.491,13-11.333    c-0.523-0.404-1.047-0.808-1.57-1.212c-2.684,3.688-5.479,7.356-10.47,7.338c0.288,0.502,0.575,1.003,0.863,1.505    c1.646-2.38,5.677-5.361,8.637-5.671c-0.168-0.621-0.337-1.242-0.505-1.863c-1.476,0.907-2.93,1.229-4.594,1.565    c0.324,0.557,0.648,1.114,0.973,1.671c1.957-1.939,4.259-3.142,6.892-3.909c-0.257-0.608-0.514-1.218-0.771-1.827    c-0.925,0.506-1.901,0.86-2.928,1.065c0.376,0.489,0.753,0.979,1.129,1.469c0.826-1.126,1.905-1.861,3.236-2.207    c1.034-0.368,0.91-1.964-0.266-1.964c-0.167,0-0.333,0-0.5,0c0.235,0.569,0.472,1.138,0.707,1.707c0.5-0.444,1-0.89,1.5-1.334    C346.007,278.182,344.587,276.772,343.627,277.626L343.627,277.626z"
         id="path181"
         style="fill:none;stroke:#000000;stroke-opacity:1" /></g></g><g
     id="g183"
     style="fill:none;stroke:#000000;stroke-opacity:1"><g
       id="g185"
       style="fill:none;stroke:#000000;stroke-opacity:1"><path
         d="M332.995,291.137c-3.333,2.482-6.305,5.184-9.035,8.323c-0.84,0.966,0.473,2.313,1.414,1.414    c1.714-1.638,3.502-3.162,5.333-4.667c0.874-0.718-0.31-2.258-1.212-1.57c-3.816,2.91-6.667,6.382-8.292,10.931    c-0.399,1.115,1.233,1.677,1.827,0.771c2.704-4.128,5.632-8.097,8.167-12.333c-0.609-0.257-1.219-0.514-1.827-0.771    c-0.735,2.128-1.599,4.204-2.334,6.333c-0.392,1.131,1.22,1.656,1.827,0.771c1.666-2.427,3.835-4.407,5.5-6.833    c0.64-0.932-0.856-2.096-1.57-1.212c-3.086,3.82-5.319,8.067-7.322,12.535c0.621,0.168,1.242,0.337,1.863,0.505    c-0.008-1.925,0.641-3.442,1.13-5.234c-0.643-0.177-1.285-0.354-1.928-0.531c-1.217,4.778-2.726,9.454-3.5,14.334    c0.654,0.089,1.31,0.177,1.964,0.266c-0.287-2.557,0.118-4.884,0.631-7.401c0.26-1.271-1.49-1.741-1.928-0.531    c-0.911,2.513-1.496,5.045-2,7.667c0.654,0.089,1.31,0.177,1.964,0.266c-0.131-4.017,1.867-7.561,2.333-11.5    c0.102-0.859-1.169-1.337-1.707-0.707c-4.135,4.834-2.523,13.742-1.59,19.473c0.643-0.177,1.285-0.354,1.928-0.531    c-0.452-1.978-0.765-3.869-0.964-5.901c-0.123-1.258-2.033-1.311-2,0c0.107,4.261,0.825,8.456,2.637,12.338    c0.431,0.924,1.88,0.444,1.863-0.505c-0.049-2.772-0.778-5.274-1.536-7.932c-0.643,0.177-1.285,0.354-1.928,0.531    c1.206,3.367,1.955,6.859,3.333,10.166c0.486,1.169,2.192,0.762,1.928-0.531c-0.532-2.607-1.219-5.876-3.423-7.607    c-0.583-0.458-1.83-0.273-1.707,0.707c0.236,1.879,0.535,3.733,0.869,5.599c0.197,1.104,2.104,0.853,1.964-0.266    c-0.604-4.823-0.811-9.642-0.833-14.5c-0.667,0-1.333,0-2,0c0.347,5.387,0.734,10.758,1.536,16.099    c0.643-0.177,1.285-0.354,1.928-0.531c-0.854-3.549-1.607-7.06-3.101-10.405c-0.437-0.979-1.812-0.396-1.863,0.505    c-0.225,4.008,0.104,7.992,0.166,12c0.021,1.29,1.971,1.288,2,0c0.076-3.345,0.452-6.663,0.667-10    c0.074-1.157-1.651-1.318-1.964-0.266c-1.041,3.504-1.586,7.094-2.333,10.666c0.654,0.089,1.31,0.177,1.964,0.266    c-0.119-1.727-0.161-3.436-0.167-5.166c-0.004-1.098-1.773-1.404-1.964-0.266c-0.389,2.311-0.793,4.601-1.036,6.932    c-0.102,0.971,1.464,1.396,1.863,0.505c0.821-1.833,1.494-3.719,2.268-5.572c-0.643,0-1.285,0-1.928,0    c0.538,1.727,0.848,3.478,1.5,5.167c0.323,0.84,1.706,1.061,1.928,0c0.423-2.013,0.365-3.957,0.666-6    c-0.608,0.08-1.218,0.159-1.827,0.239c1.475,2.585,2.759,5.243,4.5,7.666c0.639,0.889,2.135,0.382,1.827-0.771    c-0.846-3.182-2.187-6.027-3.767-8.905c-0.628-1.145-2.269-0.14-1.727,1.01c1.938,4.108,4.145,7.999,6.833,11.666    c0.745,1.017,2.437,0.097,1.727-1.01c-1.438-2.241-2.993-4.271-4.823-6.202c-0.8-0.844-2.108,0.232-1.57,1.212    c1.674,3.051,3.956,5.505,6.323,8.036c0.472-0.472,0.942-0.942,1.414-1.414c-2.4-2.558-5.026-4.498-8.202-5.99    c-0.732-0.344-1.77,0.223-1.469,1.129c0.699,2.112,2.196,3.577,3.59,5.275c0.729,0.89,2.156-0.26,1.57-1.212    c-2.276-3.702-4.609-7.458-8.191-10.025c-0.456-0.326-1.097-0.068-1.368,0.358c-0.39,0.611-0.778,1.222-1.167,1.833    c0.621,0.168,1.242,0.337,1.863,0.505c-0.007-1.74,0.448-3.35,1.363-4.828c-0.609-0.257-1.219-0.514-1.827-0.771    c-1.094,3.167-2.543,5.989-4.399,8.761c-0.535,0.799,0.563,1.984,1.368,1.368c0.757-0.579,1.324-1.031,2.036-1.656    c0.847-0.743-0.31-2.266-1.212-1.57c-0.847,0.652-1.401,1.105-2.202,1.823c-0.964,0.863,0.453,2.265,1.414,1.414    c1.097-0.97,2.182-1.929,3.333-2.834c-0.557-0.147-1.114-0.294-1.671-0.441c0.603,1.962,0.096,3.921-0.036,5.901    c0.667,0,1.333,0,2,0c0.07-2.489,0.403-4.751,1.297-7.067c-0.608,0.08-1.218,0.159-1.827,0.239    c1.16,2.376,1.679,4.771,3.323,6.868c0.52,0.662,1.809,0.13,1.707-0.707c-0.377-3.117-0.864-6.197-1.536-9.266    c-0.241-1.104-2.015-0.859-1.964,0.266c0.211,4.714,1.705,9.312,4.626,13.041c0.688,0.878,1.818-0.111,1.671-0.973    c-0.691-4.053-1.448-8.092-2-12.167c-0.608,0.257-1.218,0.514-1.827,0.771c1.796,3.968,3.527,7.839,6.167,11.333    c0.63,0.833,2.227,0.392,1.827-0.771c-1.092-3.183-2.495-6.2-3.934-9.239c-0.575,0.337-1.151,0.673-1.727,1.01    c2.324,3.117,4.855,6.002,7.656,8.702c0.812,0.782,2.163-0.222,1.57-1.212c-1.424-2.378-2.995-4.622-4.667-6.833    c-0.755-0.999-2.441-0.102-1.727,1.01c2.807,4.36,7.61,7.374,9.566,12.261c0.557-0.324,1.114-0.648,1.671-0.973    c-4.738-4.454-9.274-9.407-12.511-14.965c-0.425-0.73-1.623-0.613-1.827,0.239c-1.533,6.404,3.288,9.344,6.101,14.438    c0.523-0.404,1.047-0.808,1.57-1.212c-2.993-3.283-6.828-5.796-8.677-9.965c-0.457-1.031-2.245-0.28-1.827,0.771    c1.512,3.81,3.981,6.701,7.292,9.098c0.895,0.647,1.749-0.559,1.368-1.368c-1.389-2.956-2.413-5.988-3.399-9.094    c-0.608,0.257-1.218,0.514-1.827,0.771c3.231,4.722,6.357,9.376,10.489,13.369c0.404-0.523,0.808-1.047,1.212-1.57    c-2.848-1.303-4.035-4.913-5.808-7.309c-0.523,0.404-1.047,0.808-1.57,1.212c2.884,2.267,5.353,4.724,6.844,8.131    c0.39,0.89,1.984,0.466,1.863-0.505c-0.217-1.729-0.237-1.906-0.703-3.599c-0.608,0.257-1.218,0.514-1.827,0.771    c3.338,4.978-1.702,8.298-5.902,9.198c-1.261,0.27-0.727,2.197,0.531,1.928c5.781-1.238,10.978-6.351,7.098-12.136    c-0.617-0.921-2.139-0.361-1.827,0.771c0.21,1.022,0.421,2.045,0.631,3.067c0.621-0.168,1.242-0.337,1.863-0.505    c-1.567-3.581-4.112-6.143-7.156-8.535c-0.811-0.638-2.306,0.219-1.57,1.212c2.004,2.708,3.283,6.543,6.524,8.025    c0.983,0.45,2.08-0.731,1.212-1.57c-4.003-3.868-7.049-8.395-10.177-12.965c-0.612-0.896-2.188-0.365-1.827,0.771    c1.036,3.267,2.143,6.468,3.601,9.572c0.456-0.456,0.912-0.912,1.368-1.368c-2.857-2.068-5.058-4.588-6.374-7.902    c-0.608,0.257-1.218,0.514-1.827,0.771c1.928,4.348,5.866,6.943,8.989,10.369c0.785,0.861,2.107-0.239,1.57-1.212    c-2.381-4.312-7.225-7.359-5.899-12.896c-0.608,0.08-1.218,0.159-1.827,0.239c3.392,5.823,7.869,10.713,12.823,15.369    c0.67,0.63,2.066,0.015,1.671-0.973c-2.06-5.149-6.828-8.173-9.768-12.739c-0.575,0.337-1.151,0.673-1.727,1.01    c1.672,2.21,3.242,4.454,4.667,6.833c0.523-0.404,1.047-0.808,1.57-1.212c-2.679-2.583-5.117-5.312-7.344-8.298    c-0.766-1.027-2.286-0.172-1.727,1.01c1.363,2.879,2.696,5.742,3.732,8.761c0.608-0.257,1.218-0.514,1.827-0.771    c-2.64-3.493-4.37-7.365-6.167-11.333c-0.513-1.133-1.965-0.241-1.827,0.771c0.551,4.075,1.308,8.114,2,12.167    c0.557-0.324,1.114-0.648,1.671-0.973c-2.573-3.285-3.854-7.495-4.04-11.627c-0.654,0.089-1.31,0.177-1.964,0.266    c0.634,2.898,1.106,5.786,1.464,8.734c0.569-0.235,1.138-0.472,1.707-0.707c-1.476-1.881-1.976-4.346-3.011-6.464    c-0.419-0.856-1.547-0.488-1.827,0.239c-0.97,2.512-1.294,4.924-1.369,7.599c-0.036,1.299,1.915,1.274,2,0    c0.147-2.209,0.625-4.28-0.036-6.433c-0.239-0.779-1.086-0.901-1.671-0.441c-1.151,0.905-2.236,1.863-3.333,2.834    c0.472,0.472,0.942,0.942,1.414,1.414c0.6-0.504,1.198-1.007,1.798-1.511c-0.404-0.523-0.808-1.047-1.212-1.57    c-0.544,0.448-1.088,0.896-1.632,1.344c0.456,0.456,0.912,0.912,1.368,1.368c1.96-2.926,3.454-5.917,4.601-9.239    c0.37-1.071-1.318-1.78-1.827-0.771c-0.967,1.919-1.563,3.681-1.637,5.838c-0.035,1.035,1.351,1.311,1.863,0.505    c0.39-0.611,0.778-1.223,1.167-1.833c-0.456,0.119-0.912,0.239-1.368,0.358c3.284,2.354,5.395,5.926,7.475,9.309    c0.523-0.404,1.047-0.808,1.57-1.212c-1.109-1.352-2.513-2.692-3.076-4.393c-0.489,0.376-0.979,0.753-1.469,1.129    c2.995,1.407,5.534,3.267,7.798,5.678c0.885,0.942,2.294-0.474,1.414-1.414c-2.241-2.396-4.419-4.731-6.011-7.632    c-0.523,0.404-1.047,0.808-1.57,1.212c1.708,1.803,3.173,3.713,4.511,5.798c0.575-0.337,1.151-0.673,1.727-1.01    c-2.688-3.666-4.895-7.557-6.833-11.666c-0.575,0.337-1.151,0.673-1.727,1.01c1.487,2.71,2.769,5.432,3.565,8.427    c0.608-0.257,1.218-0.514,1.827-0.771c-1.741-2.423-3.025-5.081-4.5-7.666c-0.394-0.689-1.696-0.65-1.827,0.239    c-0.295,1.993-0.252,4.024-0.666,6c0.643,0,1.285,0,1.928,0c-0.652-1.69-0.961-3.441-1.5-5.167c-0.317-1.019-1.561-0.88-1.928,0    c-0.707,1.691-1.316,3.42-2.066,5.094c0.621,0.168,1.242,0.337,1.863,0.505c0.226-2.157,0.605-4.266,0.964-6.4    c-0.654-0.089-1.31-0.177-1.964-0.266c0.006,1.73,0.048,3.439,0.167,5.166c0.073,1.07,1.721,1.429,1.964,0.266    c0.748-3.572,1.292-7.162,2.333-10.666c-0.654-0.089-1.31-0.177-1.964-0.266c-0.215,3.337-0.591,6.655-0.667,10    c0.667,0,1.333,0,2,0c-0.062-4.008-0.391-7.992-0.166-12c-0.621,0.168-1.242,0.337-1.863,0.505    c1.42,3.183,2.089,6.558,2.899,9.927c0.308,1.283,2.114,0.709,1.928-0.531c-0.774-5.165-1.128-10.359-1.464-15.567    c-0.082-1.275-2.006-1.301-2,0c0.022,4.858,0.229,9.677,0.833,14.5c0.654-0.089,1.31-0.177,1.964-0.266    c-0.321-1.681-0.587-3.369-0.797-5.067c-0.569,0.235-1.138,0.472-1.707,0.707c1.926,1.513,2.442,4.442,2.909,6.725    c0.643-0.177,1.285-0.354,1.928-0.531c-1.377-3.307-2.126-6.799-3.333-10.166c-0.429-1.198-2.286-0.725-1.928,0.531    c0.711,2.496,1.417,4.764,1.464,7.4c0.621-0.168,1.242-0.337,1.863-0.505c-1.658-3.554-2.265-7.433-2.363-11.328    c-0.667,0-1.333,0-2,0c0.213,2.178,0.547,4.297,1.036,6.433c0.292,1.278,2.131,0.715,1.928-0.531    c-0.743-4.563-2.232-13.658,1.076-17.527c-0.569-0.235-1.138-0.472-1.707-0.707c-0.473,3.997-2.467,7.409-2.333,11.5    c0.035,1.088,1.744,1.413,1.964,0.266c0.504-2.621,1.09-5.153,2-7.667c-0.643-0.177-1.285-0.354-1.928-0.531    c-0.548,2.687-1.013,5.181-0.703,7.933c0.115,1.023,1.772,1.473,1.964,0.266c0.774-4.88,2.284-9.556,3.5-14.334    c0.318-1.25-1.588-1.775-1.928-0.531c-0.547,1.999-1.21,3.684-1.202,5.766c0.004,0.931,1.439,1.451,1.863,0.505    c1.928-4.301,4.034-8.447,7.01-12.131c-0.523-0.404-1.047-0.808-1.57-1.212c-1.666,2.427-3.835,4.407-5.5,6.833    c0.609,0.257,1.219,0.514,1.827,0.771c0.735-2.128,1.6-4.204,2.334-6.333c0.38-1.098-1.259-1.721-1.827-0.771    c-2.535,4.237-5.464,8.206-8.167,12.333c0.609,0.257,1.219,0.514,1.827,0.771c1.438-4.022,3.997-7.16,7.374-9.735    c-0.404-0.523-0.808-1.047-1.212-1.57c-1.831,1.505-3.619,3.029-5.333,4.667c0.472,0.472,0.942,0.942,1.414,1.414    c2.622-3.016,5.422-5.621,8.631-8.011C335.026,292.103,334.031,290.365,332.995,291.137L332.995,291.137z"
         id="path187"
         style="fill:none;stroke:#000000;stroke-opacity:1" /></g></g><g
     id="g189"
     style="fill:none;stroke:#000000;stroke-opacity:1"><g
       id="g191"
       style="fill:none;stroke:#000000;stroke-opacity:1"><path
         d="M294.339,340.03c4.781-3.079,11.451-2.789,16.979-3.444c4.355-0.516,8.425-1.396,12.188-3.723    c1.095-0.677,0.091-2.407-1.01-1.727c-8.896,5.499-20.547,1.615-29.166,7.167C292.249,338.999,293.251,340.731,294.339,340.03    L294.339,340.03z"
         id="path193"
         style="fill:none;stroke:#000000;stroke-opacity:1" /></g></g><g
     id="g195"
     style="fill:none;stroke:#000000;stroke-opacity:1"><g
       id="g197"
       style="fill:none;stroke:#000000;stroke-opacity:1"><path
         d="M293.766,341.964c7.008-1.367,14.053-2.413,21.146-3.222c3.628-0.413,8.311,0.24,11.296-2.202    c0.999-0.817-0.425-2.224-1.414-1.414c-1.683,1.376-3.93,1.104-5.959,1.207c-3.266,0.167-6.557,0.705-9.798,1.119    c-5.297,0.677-10.562,1.562-15.802,2.584C291.969,340.282,292.506,342.21,293.766,341.964L293.766,341.964z"
         id="path199"
         style="fill:none;stroke:#000000;stroke-opacity:1" /></g></g><g
     id="g201"
     style="fill:none;stroke:#000000;stroke-opacity:1"><g
       id="g203"
       style="fill:none;stroke:#000000;stroke-opacity:1"><path
         d="M294,344c5.348,0.499,10.692-0.706,15.975-1.43c2.956-0.406,5.902-0.852,8.84-1.38c1.864-0.335,5.322-2.106,7.186-1.857    c1.275,0.171,1.259-1.832,0-2c-1.087-0.146-2.343,0.573-3.338,0.922c-2.51,0.878-5.29,1.184-7.903,1.614    c-6.688,1.1-13.996,2.762-20.759,2.131C292.716,341.88,292.728,343.881,294,344L294,344z"
         id="path205"
         style="fill:none;stroke:#000000;stroke-opacity:1" /></g></g><g
     id="g207"
     style="fill:none;stroke:#000000;stroke-opacity:1"><g
       id="g209"
       style="fill:none;stroke:#000000;stroke-opacity:1"><path
         d="M294.5,346.333c11.6-0.402,23.043-3.577,34.5-5c1.263-0.157,1.277-2.159,0-2c-11.415,1.418-22.943,4.6-34.5,5    C293.214,344.378,293.21,346.378,294.5,346.333L294.5,346.333z"
         id="path211"
         style="fill:none;stroke:#000000;stroke-opacity:1" /></g></g><g
     id="g213"
     style="fill:none;stroke:#000000;stroke-opacity:1"><g
       id="g215"
       style="fill:none;stroke:#000000;stroke-opacity:1"><path
         d="M296.167,348.167c5.232-0.404,10.174-2.223,15.266-3.37c6.548-1.475,13.445-1.283,19.833-3.5    c1.213-0.42,0.734-2.218-0.531-1.928c-11.04,2.528-23.228,3.468-33.405,8.768c-0.844,0.439-0.496,1.978,0.505,1.863    c6.787-0.775,13.609-1.177,20.396-1.963c5.013-0.581,10.589-1.101,14.942-3.841c0.83-0.522,0.513-1.862-0.505-1.863    c-7.363-0.011-14.583,1.354-21.719,3.065c-5.335,1.279-12.515,2.33-16.155,6.895c-0.487,0.61-0.259,1.776,0.707,1.707    c8.516-0.608,16.967-2.554,25.438-3.642c5.278-0.678,12.262-0.876,16.604-4.318c0.768-0.608-0.062-2.047-0.973-1.671    c-9.55,3.932-19.562,5.813-29.736,7.312c-4.969,0.731-9.941,1.565-14.923,2.196c-3.073,0.389-5.631,0.951-7.949,3.082    c-0.656,0.603-0.137,1.703,0.707,1.707c11.327,0.055,22.625-1.599,33.862-2.856c4.229-0.474,8.34-1.771,12.562-2.345    c3.072-0.417,5.658-1.16,7.284-4.017c0.166-0.291,0.203-0.722,0-1.01c-0.046-0.064-0.092-0.129-0.137-0.194    c-0.283-0.4-0.649-0.54-1.13-0.459c-4.235,0.708-8.462,3.014-12.704,4.043c-6.408,1.556-13.024,2.187-19.571,2.838    c-8.329,0.828-20.805-1.53-27.374,4.959c-0.682,0.673-0.107,1.604,0.707,1.707c11.571,1.455,23.986,0.054,35.514-1.234    c5.607-0.626,11.162-1.537,16.637-2.915c3.031-0.764,7.688-1.343,9.713-4.012c0.415-0.548-0.05-1.281-0.598-1.469    c-3.008-1.03-6.951,0.622-9.915,1.231c-6.182,1.271-12.255,3.057-18.384,4.548c-6.035,1.468-12.162,2.158-18.313,2.941    c-2.91,0.37-6.333,0.079-8.693,2.036c-0.5,0.414-0.32,1.272,0.202,1.57c4.889,2.784,12.888,0.854,18.287,0.759    c8.061-0.143,17.884-0.47,24.889-4.926c0.755-0.48,0.583-1.545-0.239-1.827c-1.857-0.641-3.308-0.291-5.197,0.167    c-4.148,1.003-8.466,1.545-12.654,2.391c-4.893,0.989-9.777,1.946-14.676,2.88c-1.831,0.35-6.062,0.964-6.692,3.254    c-0.647,2.355,2.288,2.829,3.893,2.899c9.219,0.404,20.301-3.941,28.42-7.597c3.471-1.562,6.656-3.104,10.419-3.827    c2.948-0.567,5.765-1.087,8.53-2.285c4.4-1.905,5.841-6.24,3.056-10.09c-0.741-1.024-2.438-0.091-1.727,1.01    c6.47,10.003-17.234,15.802-23.982,17.953c-3.793,1.209-7.635,2.267-11.522,3.123c-2.527,0.558-10.004,2.68-11.935-0.086    c-0.732-1.049-2.467-0.051-1.727,1.01c1.959,2.805,6.367,2.255,9.294,1.857c6.115-0.83,12.082-2.566,17.941-4.465    c7.877-2.551,31.371-8.478,23.657-20.402c-0.575,0.337-1.151,0.673-1.727,1.01c5.445,7.527-8.431,9.06-11.822,9.712    c-4.427,0.851-8.258,3.376-12.413,4.986c-6.464,2.504-12.98,4.483-19.81,5.652c-1.584,0.271-9.02,0.455-3.938-1.156    c1.944-0.616,4.031-0.944,6.053-1.187c3.755-0.451,7.531-1.562,11.238-2.323c2.406-0.493,4.818-0.961,7.231-1.419    c2.622-0.498,6.935-2.043,9.558-1.14c-0.08-0.608-0.159-1.218-0.239-1.827c-6.795,4.322-16.078,4.406-23.879,4.652    c-4.757,0.15-13.051,1.922-17.277-0.485c0.067,0.523,0.135,1.047,0.202,1.57c2.24-1.856,8.171-1.566,10.959-1.913    c4.472-0.557,8.912-1.149,13.316-2.119c4.934-1.086,9.805-2.461,14.703-3.692c2.448-0.615,4.911-1.159,7.384-1.668    c1.963-0.403,5.044-1.519,6.998-0.851c-0.199-0.489-0.398-0.979-0.598-1.469c-1.962,2.586-9.297,3.313-12.138,3.961    c-5.924,1.352-11.999,1.92-18.028,2.581c-9.659,1.059-20.3,1.845-29.971,0.629c0.235,0.569,0.472,1.138,0.707,1.707    c3.745-3.699,10.281-3.691,15.147-3.956c4.818-0.263,9.606-0.287,14.412-0.781c9.218-0.948,18.342-2.42,26.999-5.839    c2.398-0.946,0.688-1.243,0.194-0.671c-1.411,1.636-4.376,1.588-6.268,1.895c-4.836,0.78-9.519,2.018-14.409,2.497    c-10.099,0.989-20.11,2.531-30.283,2.482c0.235,0.569,0.472,1.138,0.707,1.707c2.966-2.726,7.436-2.602,11.202-3.195    c4.776-0.752,9.572-1.376,14.353-2.102c8.965-1.362,17.767-3.319,26.171-6.78c-0.324-0.557-0.648-1.114-0.973-1.671    c-2.366,1.875-5.383,2.042-8.205,2.603c-4.104,0.814-8.265,1.323-12.422,1.771c-6.715,0.725-13.252,2.518-20,3    c0.235,0.569,0.472,1.138,0.707,1.707c3.389-4.248,10.279-5.13,15.272-6.381c6.933-1.735,14.024-3.003,21.188-2.993    c-0.168-0.621-0.337-1.242-0.505-1.863c-4.982,3.136-11.961,3.383-17.65,3.977c-5.554,0.581-11.128,0.92-16.678,1.554    c0.168,0.621,0.337,1.242,0.505,1.863c9.996-5.205,22.085-6.082,32.927-8.566c-0.177-0.643-0.354-1.285-0.531-1.928    c-5.266,1.826-11.037,2.192-16.531,2.953c-6.108,0.846-11.878,3.368-18.036,3.845C294.89,346.266,294.88,348.267,296.167,348.167    L296.167,348.167z"
         id="path217"
         style="fill:none;stroke:#000000;stroke-opacity:1" /></g></g><g
     id="g219"
     style="fill:none;stroke:#000000;stroke-opacity:1"><g
       id="g221"
       style="fill:none;stroke:#000000;stroke-opacity:1"><path
         d="M337.667,286.833c-0.223,2.774-2.176,5.092-3.363,7.495c-1.632,3.301-2.599,6.929-4.313,10.233    c-1.334,2.57-2.558,4.996-3.296,7.805c-0.823,3.132-1.029,6.187-2.891,8.962c0.575,0,1.151,0,1.727,0    c-2.497-4.534,1.57-11.03,3.869-14.91c2.651-4.477,3.361-10.092,6.808-14.045c-0.523-0.404-1.047-0.808-1.57-1.212    c-2.601,5.857-5.149,11.72-7.262,17.774c-1.713,4.908-4.216,10.233-4.875,15.397c-0.163,1.277,1.839,1.261,2,0    c0.632-4.951,3.245-10.124,4.804-14.866c1.944-5.916,4.535-11.611,7.06-17.296c0.427-0.961-0.765-2.136-1.57-1.212    c-1.972,2.262-3.057,4.799-4.051,7.602c-1.232,3.478-2.943,6.465-4.665,9.689c-2.157,4.041-4.701,9.679-2.273,14.088    c0.382,0.692,1.324,0.6,1.727,0c1.393-2.077,1.985-4.222,2.512-6.655c0.916-4.238,2.496-7.839,4.488-11.679    c1.814-3.495,2.711-7.431,4.66-10.836c1.2-2.095,2.282-3.91,2.477-6.335C339.771,285.547,337.77,285.557,337.667,286.833    L337.667,286.833z"
         id="path223"
         style="fill:none;stroke:#000000;stroke-opacity:1" /></g></g><g
     id="g225"
     style="fill:none;stroke:#000000;stroke-opacity:1"><g
       id="g227"
       style="fill:none;stroke:#000000;stroke-opacity:1"><path
         d="M339.536,343.932c0.749,4.535-0.425,7.798-4.503,10.036c-3.366,1.849-7.141,2.856-10.538,4.669    c-1.138,0.607-0.128,2.333,1.01,1.727c4.085-2.179,8.853-3.228,12.616-5.979c3.629-2.653,4.027-6.839,3.343-10.983    C341.255,342.13,339.327,342.671,339.536,343.932L339.536,343.932z"
         id="path229"
         style="fill:none;stroke:#000000;stroke-opacity:1" /></g></g><g
     id="g231"
     style="fill:none;stroke:#000000;stroke-opacity:1"><g
       id="g233"
       style="fill:none;stroke:#000000;stroke-opacity:1"><path
         d="M380.305,255.671c2.388,4.552,4.94,8.443,5.595,13.679c0.691,5.533,0.909,11.115,1.602,16.65    c0.14,1.115,1.556,1.367,1.964,0.266c1.601-4.315,1.969-8.918,2.006-13.489c0.042-4.971-1.667-9.285-2.137-14.11    c-0.621,0.168-1.242,0.337-1.863,0.505c5.293,8.782,5.624,18.691,3.899,28.563c-0.226,1.29,1.438,1.714,1.928,0.531    c3.793-9.166,5.013-18.667,2.667-28.365c-0.608,0.257-1.218,0.514-1.827,0.771c4.877,9.465,7.331,20.688,3,30.824    c-0.403,0.943,0.805,2.187,1.57,1.212c6.692-8.52,7.33-20.31,4.59-30.473c-0.608,0.257-1.218,0.514-1.827,0.771    c4.333,8.198,4.979,16.322,2.566,25.229c-0.338,1.246,1.59,1.774,1.928,0.531c1.054-3.87,2.387-7.761,2.876-11.758    c0.591-4.834-0.171-9.017-0.876-13.773c-0.557,0.324-1.114,0.648-1.671,0.973c5.878,4.719,6.32,14.171,5.874,21.126    c-0.084,1.306,1.86,1.254,2,0c0.931-8.375,2.476-16.699,0.964-25.099c-0.608,0.257-1.218,0.514-1.827,0.771    c4.115,5.837,6.184,12.173,6.196,19.328c0.002,0.982,1.373,1.382,1.863,0.505c3.312-5.925,3.12-13.022-0.333-18.843    c-0.523,0.404-1.047,0.808-1.57,1.212c3.243,3.065,3.959,7.518,5.677,11.464c0.342,0.785,1.675,0.57,1.827-0.239    c0.826-4.365-0.086-8.542-0.131-12.932c-0.569,0.235-1.138,0.472-1.707,0.707c1.692,2.077,1.536,4.919,2.077,7.392    c0.181,0.829,1.44,0.999,1.827,0.239c1.691-3.328,1.213-6.907,0.803-10.505c-0.621,0.168-1.242,0.337-1.863,0.505    c1.239,1.977,2.1,4.124,3.5,6c0.498,0.668,1.569,0.66,1.827-0.239c0.859-2.99,0.371-5.951,0.834-9    c-0.557,0.147-1.114,0.294-1.671,0.441c2.749,2.95,2.977,6.808,2.873,10.626c-0.035,1.29,1.965,1.287,2,0    c0.119-4.426-0.335-8.688-3.459-12.04c-0.474-0.508-1.557-0.31-1.671,0.441c-0.459,3.016,0.019,6.03-0.834,9    c0.608-0.08,1.218-0.159,1.827-0.239c-1.399-1.876-2.261-4.023-3.5-6c-0.484-0.772-1.983-0.545-1.863,0.505    c0.358,3.143,0.968,6.549-0.529,9.495c0.609,0.08,1.219,0.159,1.827,0.239c-0.658-3.015-0.577-5.803-2.591-8.274    c-0.569-0.698-1.715-0.105-1.707,0.707c0.043,4.195,0.995,8.209,0.203,12.4c0.608-0.08,1.218-0.159,1.827-0.239    c-1.827-4.198-2.546-8.613-5.989-11.868c-0.817-0.772-2.161,0.216-1.57,1.212c3.091,5.209,3.303,11.511,0.333,16.823    c0.621,0.168,1.242,0.337,1.863,0.505c-0.013-7.48-2.157-14.222-6.47-20.338c-0.665-0.943-2.031-0.359-1.827,0.771    c1.474,8.194-0.129,16.403-1.036,24.567c0.667,0,1.333,0,2,0c0.478-7.436-0.17-17.49-6.46-22.54    c-0.812-0.652-1.821-0.04-1.671,0.973c0.577,3.898,1.271,7.592,1.009,11.561c-0.289,4.375-1.865,8.706-3.009,12.908    c0.643,0.177,1.285,0.354,1.928,0.531c2.553-9.419,1.811-18.107-2.768-26.771c-0.538-1.019-2.119-0.31-1.827,0.771    c2.53,9.388,2.146,20.606-4.076,28.527c0.523,0.404,1.047,0.808,1.57,1.212c4.637-10.852,2.249-22.658-3-32.844    c-0.535-1.038-2.087-0.302-1.827,0.771c2.265,9.367,0.984,18.477-2.667,27.303c0.643,0.177,1.285,0.354,1.928,0.531    c1.819-10.408,1.475-20.854-4.101-30.104c-0.48-0.797-1.964-0.531-1.863,0.505c0.419,4.298,1.907,8.267,2.11,12.672    c0.223,4.823-0.223,9.853-1.907,14.396c0.654,0.089,1.31,0.177,1.964,0.266c-0.769-6.152-1.063-12.348-1.833-18.5    c-0.596-4.764-3.463-8.694-5.637-12.839C381.433,253.519,379.706,254.53,380.305,255.671L380.305,255.671z"
         id="path235"
         style="fill:none;stroke:#000000;stroke-opacity:1" /></g></g><g
     id="g237"
     style="fill:none;stroke:#000000;stroke-opacity:1"><g
       id="g239"
       style="fill:none;stroke:#000000;stroke-opacity:1"><path
         d="M446.786,244.016c2.712,9.035,1.691,18.501,3,27.75c0.153,1.087,1.622,0.809,1.928,0c3.54-9.339,2.284-18.949,0.5-28.531    c-0.608,0.257-1.218,0.514-1.827,0.771c2.867,5.178,2.898,10.746,3.113,16.495c0.043,1.146,1.608,1.339,1.964,0.266    c1.128-3.399,1.483-6.697,1.536-10.265c0.02-1.291-1.98-1.289-2,0c-0.05,3.356-0.404,6.539-1.464,9.734    c0.654,0.089,1.31,0.177,1.964,0.266c-0.229-6.153-0.338-11.999-3.387-17.504c-0.578-1.045-2.026-0.297-1.827,0.771    c1.727,9.273,2.927,18.427-0.5,27.468c0.643,0,1.285,0,1.928,0c-1.312-9.271-0.278-18.686-3-27.75    C448.345,242.252,446.414,242.778,446.786,244.016L446.786,244.016z"
         id="path241"
         style="fill:none;stroke:#000000;stroke-opacity:1" /></g></g><g
     id="g243"
     style="fill:none;stroke:#000000;stroke-opacity:1"><g
       id="g245"
       style="fill:none;stroke:#000000;stroke-opacity:1"><path
         d="M452.637,237.505c4.563,8.078,6.188,16.787,5.363,25.995c-0.104,1.172,1.632,1.291,1.964,0.266    c0.285-0.822,0.535-1.656,0.75-2.5c0.348-1.244-1.582-1.771-1.928-0.531c-0.216,0.844-0.466,1.677-0.75,2.5    c0.654,0.089,1.31,0.177,1.964,0.266c0.854-9.539-0.914-18.645-5.637-27.004C453.729,235.373,452.001,236.381,452.637,237.505    L452.637,237.505z"
         id="path247"
         style="fill:none;stroke:#000000;stroke-opacity:1" /></g></g><g
     id="g249"
     style="fill:none;stroke:#000000;stroke-opacity:1"><g
       id="g251"
       style="fill:none;stroke:#000000;stroke-opacity:1"><path
         d="M454.293,234.208c6.052,5.59,5.673,14.514,8.243,21.808c0.425,1.208,2.357,0.688,1.928-0.531    c-2.708-7.689-2.371-16.792-8.757-22.691C454.762,231.92,453.344,233.331,454.293,234.208L454.293,234.208z"
         id="path253"
         style="fill:none;stroke:#000000;stroke-opacity:1" /></g></g><g
     id="g255"
     style="fill:none;stroke:#000000;stroke-opacity:1"><g
       id="g257"
       style="fill:none;stroke:#000000;stroke-opacity:1"><path
         d="M456.387,230.005c3.646,4.903,5.842,10.542,8.5,16c0.481,0.989,1.768,0.381,1.863-0.505    c1.042-9.63-4.642-19.008-8.387-27.505c-0.523,0.404-1.047,0.808-1.57,1.212c3.062,3.895,4.414,8.667,6.594,13.048    c0.426,0.857,1.54,0.488,1.827-0.239c2.789-7.053-0.302-14.085-3.351-20.521c-0.575,0.336-1.151,0.673-1.727,1.01    c2.282,4.234,3.396,8.934,5.5,13.25c0.488,1.002,1.751,0.367,1.863-0.505c0.948-7.358-2.235-14.115-4.286-21.016    c-0.608,0.257-1.218,0.514-1.827,0.771c0.729,1.068,1.561,1.97,2.406,2.952c0.558,0.647,1.769,0.143,1.707-0.707    c-0.201-2.787-0.965-5.351-1.786-8.016c-0.378-1.229-2.309-0.705-1.928,0.531c0.767,2.491,1.524,4.857,1.714,7.484    c0.569-0.236,1.138-0.471,1.707-0.707c-0.729-0.823-1.427-1.672-2.094-2.548c-0.617-0.903-2.165-0.366-1.827,0.771    c1.995,6.717,5.138,13.317,4.214,20.484c0.621-0.168,1.242-0.336,1.863-0.505c-2.105-4.32-3.214-9.009-5.5-13.25    c-0.619-1.148-2.271-0.14-1.727,1.01c2.824,5.961,5.743,12.419,3.149,18.979c0.608-0.08,1.218-0.16,1.827-0.239    c-2.271-4.566-3.718-9.397-6.906-13.452c-0.76-0.967-1.988,0.265-1.57,1.212c3.611,8.194,9.117,17.212,8.113,26.495    c0.621-0.168,1.242-0.336,1.863-0.505c-2.658-5.457-4.853-11.096-8.5-16C457.354,227.974,455.616,228.969,456.387,230.005    L456.387,230.005z"
         id="path259"
         style="fill:none;stroke:#000000;stroke-opacity:1" /></g></g><g
     id="g261"
     style="fill:none;stroke:#000000;stroke-opacity:1"><g
       id="g263"
       style="fill:none;stroke:#000000;stroke-opacity:1"><path
         d="M286,255c0.042,2.6,0.566,5.133,1.369,7.599c0.396,1.221,2.328,0.698,1.928-0.531c-0.749-2.302-1.257-4.64-1.297-7.067    C287.979,253.712,285.979,253.71,286,255L286,255z"
         id="path265"
         style="fill:none;stroke:#000000;stroke-opacity:1" /></g></g><g
     id="g267"
     style="fill:none;stroke:#000000;stroke-opacity:1"><g
       id="g269"
       style="fill:none;stroke:#000000;stroke-opacity:1"><path
         d="M289.369,255.933c1.326,4.113,2.23,8.318,4.101,12.239c0.555,1.163,2.279,0.148,1.727-1.01    c-1.793-3.758-2.628-7.818-3.899-11.761C290.903,254.179,288.972,254.702,289.369,255.933L289.369,255.933z"
         id="path271"
         style="fill:none;stroke:#000000;stroke-opacity:1" /></g></g><g
     id="g273"
     style="fill:none;stroke:#000000;stroke-opacity:1"><g
       id="g275"
       style="fill:none;stroke:#000000;stroke-opacity:1"><path
         d="M293.369,256.599c0.841,3.722,2.826,7.001,4.768,10.239c0.662,1.104,2.392,0.1,1.727-1.01    c-1.854-3.095-3.762-6.204-4.566-9.761C295.013,254.81,293.085,255.343,293.369,256.599L293.369,256.599z"
         id="path277"
         style="fill:none;stroke:#000000;stroke-opacity:1" /></g></g><g
     id="g279"
     style="fill:none;stroke:#000000;stroke-opacity:1"><g
       id="g281"
       style="fill:none;stroke:#000000;stroke-opacity:1"><path
         d="M297.47,259.505c1.043,2.111,1.841,4.467,3.49,6.202c0.89,0.937,2.302-0.479,1.414-1.414    c-1.505-1.584-2.226-3.87-3.178-5.798C298.625,257.339,296.9,258.353,297.47,259.505L297.47,259.505z"
         id="path283"
         style="fill:none;stroke:#000000;stroke-opacity:1" /></g></g><g
     id="g285"
     style="fill:none;stroke:#000000;stroke-opacity:1"><g
       id="g287"
       style="fill:none;stroke:#000000;stroke-opacity:1"><path
         d="M67.741,209.926c29.337,6.63,57.927,15.968,85.986,26.745c1.206,0.463,1.723-1.471,0.531-1.929    c-28.059-10.777-56.649-20.115-85.986-26.745C67.017,207.713,66.483,209.642,67.741,209.926L67.741,209.926z"
         id="path289"
         style="fill:none;stroke:#000000;stroke-opacity:1" /></g></g><g
     id="g291"
     style="fill:none;stroke:#000000;stroke-opacity:1"><g
       id="g293"
       style="fill:none;stroke:#000000;stroke-opacity:1"><path
         d="M32.293,242.375c11.212,10.339,26.104,16.389,40.125,21.853c16.6,6.47,33.689,11.554,50.617,17.07    c1.229,0.401,1.752-1.53,0.531-1.928c-15.517-5.059-31.131-9.806-46.438-15.483c-15.024-5.573-31.455-11.892-43.42-22.926    C32.761,240.088,31.343,241.499,32.293,242.375L32.293,242.375z"
         id="path295"
         style="fill:none;stroke:#000000;stroke-opacity:1" /></g></g><g
     id="g297"
     style="fill:none;stroke:#000000;stroke-opacity:1"><g
       id="g299"
       style="fill:none;stroke:#000000;stroke-opacity:1"><path
         d="M32.293,240.375c11.212,10.339,26.104,16.389,40.125,21.853c16.6,6.47,33.689,11.554,50.617,17.07    c1.229,0.401,1.752-1.53,0.531-1.928c-15.517-5.059-31.131-9.806-46.438-15.483c-15.024-5.573-31.455-11.892-43.42-22.926    C32.761,238.088,31.343,239.499,32.293,240.375L32.293,240.375z"
         id="path301"
         style="fill:none;stroke:#000000;stroke-opacity:1" /></g></g><g
     id="g303"
     style="fill:none;stroke:#000000;stroke-opacity:1"><g
       id="g305"
       style="fill:none;stroke:#000000;stroke-opacity:1"><path
         d="M35.293,250.375c11.212,10.339,26.104,16.389,40.125,21.853c16.6,6.47,33.689,11.554,50.617,17.07    c1.229,0.401,1.752-1.53,0.531-1.928c-15.517-5.059-31.131-9.806-46.438-15.483c-15.024-5.573-31.455-11.892-43.42-22.926    C35.761,248.088,34.343,249.499,35.293,250.375L35.293,250.375z"
         id="path307"
         style="fill:none;stroke:#000000;stroke-opacity:1" /></g></g><g
     id="g309"
     style="fill:none;stroke:#000000;stroke-opacity:1"><g
       id="g311"
       style="fill:none;stroke:#000000;stroke-opacity:1"><path
         d="M32.293,238.375c11.212,10.339,26.104,16.389,40.125,21.853c16.6,6.47,33.689,11.554,50.617,17.07    c1.229,0.401,1.752-1.53,0.531-1.928c-15.517-5.059-31.131-9.806-46.438-15.483c-15.024-5.573-31.455-11.892-43.42-22.926    C32.761,236.088,31.343,237.499,32.293,238.375L32.293,238.375z"
         id="path313"
         style="fill:none;stroke:#000000;stroke-opacity:1" /></g></g><g
     id="g315"
     style="fill:none;stroke:#000000;stroke-opacity:1"><g
       id="g317"
       style="fill:none;stroke:#000000;stroke-opacity:1"><path
         d="M32.293,245.375c11.212,10.339,26.104,16.389,40.125,21.853c16.6,6.47,33.689,11.554,50.617,17.07    c1.229,0.401,1.752-1.53,0.531-1.928c-15.517-5.059-31.131-9.806-46.438-15.483c-15.024-5.573-31.455-11.892-43.42-22.926    C32.761,243.088,31.343,244.499,32.293,245.375L32.293,245.375z"
         id="path319"
         style="fill:none;stroke:#000000;stroke-opacity:1" /></g></g><g
     id="g321"
     style="fill:none;stroke:#000000;stroke-opacity:1"><g
       id="g323"
       style="fill:none;stroke:#000000;stroke-opacity:1"><path
         d="M36.412,251.847c27.093,16.504,58.671,25.662,88.622,35.451c1.229,0.402,1.751-1.529,0.531-1.928    c-29.8-9.74-61.194-18.834-88.144-35.25C36.317,249.447,35.313,251.177,36.412,251.847L36.412,251.847z"
         id="path325"
         style="fill:none;stroke:#000000;stroke-opacity:1" /></g></g><g
     id="g327"
     style="fill:none;stroke:#000000;stroke-opacity:1"><g
       id="g329"
       style="fill:none;stroke:#000000;stroke-opacity:1"><path
         d="M34.412,235.846c26.793,16.323,57.078,23.855,86.622,33.452c1.23,0.4,1.752-1.531,0.531-1.928    c-29.381-9.545-59.495-17.015-86.144-33.25C34.317,233.446,33.313,235.177,34.412,235.846L34.412,235.846z"
         id="path331"
         style="fill:none;stroke:#000000;stroke-opacity:1" /></g></g><g
     id="g333"
     style="fill:none;stroke:#000000;stroke-opacity:1"><g
       id="g335"
       style="fill:none;stroke:#000000;stroke-opacity:1"><path
         d="M34.412,233.846c26.792,16.323,57.078,23.855,86.622,33.452c1.23,0.4,1.752-1.531,0.531-1.928    c-29.381-9.545-59.495-17.015-86.144-33.25C34.317,231.446,33.313,233.177,34.412,233.846L34.412,233.846z"
         id="path337"
         style="fill:none;stroke:#000000;stroke-opacity:1" /></g></g><g
     id="g339"
     style="fill:none;stroke:#000000;stroke-opacity:1"><g
       id="g341"
       style="fill:none;stroke:#000000;stroke-opacity:1"><path
         d="M138.734,306.464c5.745,1.748,11.375,2.577,17.305,1.338c5.913-1.236,11.165-4.983,15.966-8.438    c1.037-0.746,0.04-2.481-1.01-1.727c-4.464,3.212-8.998,6.254-14.288,7.922c-5.764,1.815-11.816,0.688-17.442-1.022    C138.029,304.159,137.504,306.09,138.734,306.464L138.734,306.464z"
         id="path343"
         style="fill:none;stroke:#000000;stroke-opacity:1" /></g></g><g
     id="g345"
     style="fill:none;stroke:#000000;stroke-opacity:1"><g
       id="g347"
       style="fill:none;stroke:#000000;stroke-opacity:1"><path
         d="M332.495,269.197c10.339,4.891,20.539,10.49,21.505,23.137c0.098,1.277,2.099,1.287,2,0    c-1.025-13.424-11.349-19.591-22.495-24.863C332.346,266.922,331.33,268.646,332.495,269.197L332.495,269.197z"
         id="path349"
         style="fill:none;stroke:#000000;stroke-opacity:1" /></g></g><g
     id="g351"
     style="fill:none;stroke:#000000;stroke-opacity:1"><g
       id="g353"
       style="fill:none;stroke:#000000;stroke-opacity:1"><path
         d="M366.293,277.041c6.372,7.582,6.442,19.644,1.844,28.121c-0.615,1.134,1.111,2.144,1.727,1.01    c5.059-9.325,4.817-22.247-2.156-30.545C366.876,274.639,365.469,276.061,366.293,277.041L366.293,277.041z"
         id="path355"
         style="fill:none;stroke:#000000;stroke-opacity:1" /></g></g><g
     id="g357"
     style="fill:none;stroke:#000000;stroke-opacity:1"><g
       id="g359"
       style="fill:none;stroke:#000000;stroke-opacity:1"><path
         d="M372.293,281.041c4.858,5.4,2.437,12.856,1.707,19.293c-0.146,1.28,1.856,1.267,2,0    c0.811-7.158,3.062-14.755-2.293-20.707C372.843,278.666,371.433,280.085,372.293,281.041L372.293,281.041z"
         id="path361"
         style="fill:none;stroke:#000000;stroke-opacity:1" /></g></g><g
     id="g363"
     style="fill:none;stroke:#000000;stroke-opacity:1"><g
       id="g365"
       style="fill:none;stroke:#000000;stroke-opacity:1"><path
         d="M365.369,281.933c2.552,8.542,1.38,17.613-0.666,26.136c-0.306,1.272,1.484,1.725,1.928,0.531    c2.521-6.77,3.307-13.746,3.369-20.933c-0.667,0-1.333,0-2,0c0.091,3.268,0.489,6.47,0.036,9.734    c-0.175,1.258,1.48,1.77,1.928,0.531c1.373-3.797,1.94-7.574,2.036-11.599c-0.667,0-1.333,0-2,0c0,3.333,0,6.667,0,10    c0,1.29,2,1.29,2,0c0-3.111,0-6.223,0-9.334c-0.654,0.089-1.31,0.177-1.964,0.266c0.285,2.057,1.047,3.943,1.333,6    c0.152,1.1,1.613,0.793,1.928,0c1.34-3.378,2.474-6.623,2.703-10.266c-0.654,0.089-1.31,0.177-1.964,0.266    c0.632,1.938,1.139,3.664,1.297,5.734c0.086,1.126,1.598,1.36,1.964,0.266c1.32-3.937,1.246-7.788,0.667-11.864    c-0.643,0.177-1.285,0.354-1.928,0.531c0.436,1.686,0.614,3.325,0.631,5.067c0.667,0,1.333,0,2,0    c-0.116-1.278-0.141-1.467-1.162-2.196c-0.766-0.547-1.646,0.349-1.469,1.129c1.113,4.925-0.229,9.27-3.232,13.229    c-0.78,1.028,0.958,2.022,1.727,1.01c3.338-4.399,4.661-9.345,3.434-14.771c-0.489,0.376-0.979,0.753-1.469,1.129    c0.058,0.156,0.114,0.313,0.172,0.47c0.115,1.262,2.013,1.31,2,0c-0.019-1.951-0.212-3.702-0.703-5.599    c-0.332-1.283-2.104-0.706-1.928,0.531c0.534,3.766,0.554,7.158-0.667,10.802c0.654,0.089,1.31,0.177,1.964,0.266    c-0.167-2.194-0.685-4.169-1.369-6.266c-0.356-1.093-1.893-0.863-1.964,0.266c-0.22,3.49-1.358,6.524-2.631,9.734    c0.643,0,1.285,0,1.928,0c-0.285-2.057-1.047-3.943-1.333-6c-0.158-1.141-1.964-0.83-1.964,0.266c0,3.111,0,6.223,0,9.334    c0,1.29,2,1.29,2,0c0-3.333,0-6.667,0-10c0-1.292-1.97-1.287-2,0c-0.092,3.832-0.66,7.461-1.964,11.067    c0.643,0.177,1.285,0.354,1.928,0.531c0.479-3.446,0.133-6.803,0.036-10.266c-0.036-1.287-1.988-1.292-2,0    c-0.062,7.001-0.842,13.809-3.297,20.401c0.643,0.177,1.285,0.354,1.928,0.531c2.128-8.863,3.319-18.321,0.666-27.198    C366.929,280.169,364.998,280.694,365.369,281.933L365.369,281.933z"
         id="path367"
         style="fill:none;stroke:#000000;stroke-opacity:1" /></g></g><g
     id="g369"
     style="fill:none;stroke:#000000;stroke-opacity:1"><g
       id="g371"
       style="fill:none;stroke:#000000;stroke-opacity:1"><path
         d="M395.677,189.078c-1.527,2.261-2.582,4.727-3.578,7.255c-0.474,1.201,1.461,1.717,1.928,0.531    c0.935-2.371,1.945-4.658,3.377-6.776C398.128,189.015,396.395,188.016,395.677,189.078L395.677,189.078z"
         id="path373"
         style="fill:none;stroke:#000000;stroke-opacity:1" /></g></g><g
     id="g375"
     style="fill:none;stroke:#000000;stroke-opacity:1"><g
       id="g377"
       style="fill:none;stroke:#000000;stroke-opacity:1"><path
         d="M391.93,191.955c-0.887-1.105-1.804-2.174-3.052-2.885c-1.122-0.64-2.13,1.088-1.01,1.727    c1.092,0.623,1.872,1.606,2.647,2.573c0.342,0.426,1.061,0.354,1.414,0C392.347,192.952,392.271,192.379,391.93,191.955    L391.93,191.955z"
         id="path379"
         style="fill:none;stroke:#000000;stroke-opacity:1" /></g></g><g
     id="g381"
     style="fill:none;stroke:#000000;stroke-opacity:1"><g
       id="g383"
       style="fill:none;stroke:#000000;stroke-opacity:1"><path
         d="M386.281,194.191c-0.884,0.561-1.413,1.247-1.807,2.208c-0.207,0.505,0.22,1.099,0.698,1.23    c0.573,0.158,1.023-0.194,1.229-0.699c0.188-0.459,0.47-0.747,0.889-1.013C388.376,195.229,387.374,193.498,386.281,194.191    L386.281,194.191z"
         id="path385"
         style="fill:none;stroke:#000000;stroke-opacity:1" /></g></g><g
     id="g387"
     style="fill:none;stroke:#000000;stroke-opacity:1"><g
       id="g389"
       style="fill:none;stroke:#000000;stroke-opacity:1"><path
         d="M384.282,184.681c-1.349,1.501-3.223,1.84-4.871,0.557c-1.004-0.783-2.431,0.622-1.414,1.414    c2.473,1.926,5.557,1.828,7.699-0.557C386.556,185.139,385.146,183.719,384.282,184.681L384.282,184.681z"
         id="path391"
         style="fill:none;stroke:#000000;stroke-opacity:1" /></g></g><g
     id="g393"
     style="fill:none;stroke:#000000;stroke-opacity:1"><g
       id="g395"
       style="fill:none;stroke:#000000;stroke-opacity:1"><path
         d="M379.015,191.824c-0.301-0.524-0.377-1.087-0.43-1.681c-0.049-0.542-0.418-1-1-1c-0.509,0-1.049,0.456-1,1    c0.085,0.952,0.219,1.849,0.703,2.69C377.931,193.951,379.659,192.944,379.015,191.824L379.015,191.824z"
         id="path397"
         style="fill:none;stroke:#000000;stroke-opacity:1" /></g></g><g
     id="g399"
     style="fill:none;stroke:#000000;stroke-opacity:1"><g
       id="g401"
       style="fill:none;stroke:#000000;stroke-opacity:1"><path
         d="M370.281,190.998c1.308-2.002,2.321-4.125,2.904-6.45c0.314-1.251-1.614-1.782-1.928-0.531    c-0.545,2.167-1.484,4.105-2.703,5.971C367.847,191.072,369.579,192.073,370.281,190.998L370.281,190.998z"
         id="path403"
         style="fill:none;stroke:#000000;stroke-opacity:1" /></g></g><g
     id="g405"
     style="fill:none;stroke:#000000;stroke-opacity:1"><g
       id="g407"
       style="fill:none;stroke:#000000;stroke-opacity:1"><path
         d="M363.729,190.713c-0.145-2.312,0.948-4.532,0.723-6.834c-0.277-2.836-3.191-3.056-5.466-2.778    c-1.264,0.154-1.278,2.156,0,2c0.981-0.12,2.173-0.321,3.086,0.173c0.592,0.32,0.416,1.373,0.365,1.898    c-0.179,1.868-0.827,3.639-0.708,5.541C361.81,191.994,363.811,192.001,363.729,190.713L363.729,190.713z"
         id="path409"
         style="fill:none;stroke:#000000;stroke-opacity:1" /></g></g><g
     id="g411"
     style="fill:none;stroke:#000000;stroke-opacity:1"><g
       id="g413"
       style="fill:none;stroke:#000000;stroke-opacity:1"><path
         d="M380.913,188.706c-0.112,0.134-0.226,0.268-0.338,0.402c-0.351,0.417-0.41,1.004,0,1.414c0.36,0.36,1.063,0.418,1.414,0    c0.112-0.134,0.226-0.268,0.338-0.402c0.351-0.417,0.41-1.004,0-1.414C381.967,188.345,381.264,188.288,380.913,188.706    L380.913,188.706z"
         id="path415"
         style="fill:none;stroke:#000000;stroke-opacity:1" /></g></g><g
     id="g417"
     style="fill:none;stroke:#000000;stroke-opacity:1"><g
       id="g419"
       style="fill:none;stroke:#000000;stroke-opacity:1"><path
         d="M411.9,179.613c-1.618,2.945-5.695,1.045-8.416,1.41c-1.259,0.169-1.275,2.171,0,2c3.703-0.497,7.891,1.699,10.143-2.4    C414.248,179.492,412.521,178.483,411.9,179.613L411.9,179.613z"
         id="path421"
         style="fill:none;stroke:#000000;stroke-opacity:1" /></g></g><g
     id="g423"
     style="fill:none;stroke:#000000;stroke-opacity:1"><g
       id="g425"
       style="fill:none;stroke:#000000;stroke-opacity:1"><path
         d="M408.072,182.923c-1.015-0.579-2.021-1.148-2.768-2.066c-0.345-0.423-1.059-0.356-1.414,0    c-0.415,0.415-0.344,0.992,0,1.414c0.846,1.04,2.023,1.724,3.172,2.379C408.185,185.29,409.192,183.562,408.072,182.923    L408.072,182.923z"
         id="path427"
         style="fill:none;stroke:#000000;stroke-opacity:1" /></g></g><g
     id="g429"
     style="fill:none;stroke:#000000;stroke-opacity:1"><g
       id="g431"
       style="fill:none;stroke:#000000;stroke-opacity:1"><path
         d="M402.491,180.306c0.735-1.514,0.865-3.204-0.234-4.582c-1.207-1.514-3.237-1.972-5.083-2.004c-1.29-0.022-1.288,1.978,0,2    c2.056,0.035,4.816,1.055,3.591,3.576C400.203,180.451,401.928,181.465,402.491,180.306L402.491,180.306z"
         id="path433"
         style="fill:none;stroke:#000000;stroke-opacity:1" /></g></g><g
     id="g435"
     style="fill:none;stroke:#000000;stroke-opacity:1"><g
       id="g437"
       style="fill:none;stroke:#000000;stroke-opacity:1"><path
         d="M396.937,180.843c-1.046-0.461-2.144-1.109-2.511-2.261c-0.39-1.224-2.32-0.701-1.928,0.531    c0.528,1.66,1.876,2.772,3.429,3.456c0.499,0.22,1.07,0.151,1.368-0.358C397.547,181.781,397.436,181.062,396.937,180.843    L396.937,180.843z"
         id="path439"
         style="fill:none;stroke:#000000;stroke-opacity:1" /></g></g><g
     id="g441"
     style="fill:none;stroke:#000000;stroke-opacity:1"><g
       id="g443"
       style="fill:none;stroke:#000000;stroke-opacity:1"><path
         d="M391.727,172.944c-1.562-2.028-4.116-2.64-6.537-3c-1.261-0.188-1.804,1.739-0.531,1.929    c1.746,0.26,4.182,0.574,5.342,2.081C390.774,174.96,392.514,173.967,391.727,172.944L391.727,172.944z"
         id="path445"
         style="fill:none;stroke:#000000;stroke-opacity:1" /></g></g><g
     id="g447"
     style="fill:none;stroke:#000000;stroke-opacity:1"><g
       id="g449"
       style="fill:none;stroke:#000000;stroke-opacity:1"><path
         d="M388.887,172.944c-0.937,1.323-1.99,2.554-3.354,3.452c-1.071,0.706-0.071,2.438,1.01,1.727    c1.663-1.095,2.928-2.555,4.07-4.169C391.36,172.899,389.625,171.901,388.887,172.944L388.887,172.944z"
         id="path451"
         style="fill:none;stroke:#000000;stroke-opacity:1" /></g></g><g
     id="g453"
     style="fill:none;stroke:#000000;stroke-opacity:1"><g
       id="g455"
       style="fill:none;stroke:#000000;stroke-opacity:1"><path
         d="M376.793,171.79c-1.043,0.893-2.108,1.782-2.97,2.858c-0.34,0.425-0.417,0.997,0,1.414c0.354,0.354,1.073,0.426,1.414,0    c0.861-1.076,1.927-1.965,2.97-2.858C379.188,172.364,377.767,170.956,376.793,171.79L376.793,171.79z"
         id="path457"
         style="fill:none;stroke:#000000;stroke-opacity:1" /></g></g><g
     id="g459"
     style="fill:none;stroke:#000000;stroke-opacity:1"><g
       id="g461"
       style="fill:none;stroke:#000000;stroke-opacity:1"><path
         d="M368.557,177.332c0.892-0.824,1.399-1.93,0.954-3.125c-0.497-1.333-1.842-2.206-3.013-2.891    c-1.116-0.652-2.122,1.077-1.01,1.727c0.679,0.396,1.312,0.816,1.854,1.39c0.543,0.575,0.325,1-0.199,1.485    C366.193,176.795,367.611,178.206,368.557,177.332L368.557,177.332z"
         id="path463"
         style="fill:none;stroke:#000000;stroke-opacity:1" /></g></g><g
     id="g465"
     style="fill:none;stroke:#000000;stroke-opacity:1"><g
       id="g467"
       style="fill:none;stroke:#000000;stroke-opacity:1"><path
         d="M372.64,169.567c-0.98-1.183-2.475-1.585-3.942-1.21c-1.249,0.319-0.719,2.248,0.531,1.929    c0.823-0.21,1.463,0.051,1.997,0.696c0.349,0.42,1.056,0.358,1.414,0C373.052,170.569,372.987,169.986,372.64,169.567    L372.64,169.567z"
         id="path469"
         style="fill:none;stroke:#000000;stroke-opacity:1" /></g></g><g
     id="g471"
     style="fill:none;stroke:#000000;stroke-opacity:1"><g
       id="g473"
       style="fill:none;stroke:#000000;stroke-opacity:1"><path
         d="M358.198,172.449c-0.751-0.03-1.472-0.288-2.228-0.318c0.321,0.245,0.643,0.489,0.964,0.734    c-0.272-0.808,0.162-1.45,0.642-2.087c0.329-0.437,0.07-1.117-0.358-1.368c-0.512-0.3-1.041-0.076-1.368,0.358    c-0.794,1.054-1.285,2.322-0.843,3.628c0.147,0.438,0.497,0.716,0.964,0.734c0.751,0.03,1.472,0.288,2.228,0.318    C359.488,174.501,359.483,172.5,358.198,172.449L358.198,172.449z"
         id="path475"
         style="fill:none;stroke:#000000;stroke-opacity:1" /></g></g><g
     id="g477"
     style="fill:none;stroke:#000000;stroke-opacity:1"><g
       id="g479"
       style="fill:none;stroke:#000000;stroke-opacity:1"><path
         d="M354.486,177.308c1.29,0,1.29-2,0-2S353.196,177.308,354.486,177.308L354.486,177.308z"
         id="path481"
         style="fill:none;stroke:#000000;stroke-opacity:1" /></g></g><g
     id="g483"
     style="fill:none;stroke:#000000;stroke-opacity:1"><g
       id="g485"
       style="fill:none;stroke:#000000;stroke-opacity:1"><path
         d="M64.505,316.863c15.575-6.761,31.424-12.871,47-19.631c1.18-0.512,0.161-2.234-1.01-1.727    c-15.576,6.76-31.424,12.87-47,19.631C62.315,315.648,63.334,317.371,64.505,316.863L64.505,316.863z"
         id="path487"
         style="fill:none;stroke:#000000;stroke-opacity:1" /></g></g><g
     id="g489"
     style="fill:none;stroke:#000000;stroke-opacity:1"><g
       id="g491"
       style="fill:none;stroke:#000000;stroke-opacity:1"><path
         d="M367.847,326.364c10.747-4.679,21.545-9.239,32.292-13.918c1.18-0.514,0.16-2.236-1.01-1.727    c-10.747,4.678-21.545,9.238-32.292,13.918C365.657,325.151,366.677,326.874,367.847,326.364L367.847,326.364z"
         id="path493"
         style="fill:none;stroke:#000000;stroke-opacity:1" /></g></g><g
     id="g495"
     style="fill:none;stroke:#000000;stroke-opacity:1"><g
       id="g497"
       style="fill:none;stroke:#000000;stroke-opacity:1"><path
         d="M288.254,317.91c6.226-2.711,12.503-5.295,18.729-8.006c1.18-0.514,0.16-2.236-1.01-1.727    c-6.226,2.711-12.504,5.294-18.729,8.006C286.064,316.697,287.084,318.42,288.254,317.91L288.254,317.91z"
         id="path499"
         style="fill:none;stroke:#000000;stroke-opacity:1" /></g></g><g
     id="g501"
     style="fill:none;stroke:#000000;stroke-opacity:1"><g
       id="g503"
       style="fill:none;stroke:#000000;stroke-opacity:1"><path
         d="M293.254,321.91c6.226-2.711,12.503-5.295,18.729-8.006c1.18-0.514,0.16-2.236-1.01-1.727    c-6.226,2.711-12.504,5.294-18.729,8.006C291.064,320.697,292.084,322.42,293.254,321.91L293.254,321.91z"
         id="path505"
         style="fill:none;stroke:#000000;stroke-opacity:1" /></g></g><g
     id="g507"
     style="fill:none;stroke:#000000;stroke-opacity:1"><g
       id="g509"
       style="fill:none;stroke:#000000;stroke-opacity:1"><path
         d="M265.399,288.2c6.226-2.711,12.503-5.295,18.729-8.006c1.18-0.514,0.16-2.236-1.01-1.727    c-6.226,2.711-12.504,5.294-18.729,8.006C263.21,286.987,264.229,288.71,265.399,288.2L265.399,288.2z"
         id="path511"
         style="fill:none;stroke:#000000;stroke-opacity:1" /></g></g><g
     id="g513"
     style="fill:none;stroke:#000000;stroke-opacity:1"><g
       id="g515"
       style="fill:none;stroke:#000000;stroke-opacity:1"><path
         d="M278.672,313.904c7.666-3.313,15.644-5.687,23.312-9c1.181-0.51,0.161-2.232-1.01-1.727    c-7.666,3.312-15.645,5.686-23.312,9C276.481,312.688,277.501,314.41,278.672,313.904L278.672,313.904z"
         id="path517"
         style="fill:none;stroke:#000000;stroke-opacity:1" /></g></g><g
     id="g519"
     style="fill:none;stroke:#000000;stroke-opacity:1"><g
       id="g521"
       style="fill:none;stroke:#000000;stroke-opacity:1"><path
         d="M300.119,324.362c4.579-1.996,9.15-4.01,13.729-6.006c1.18-0.514,0.16-2.236-1.01-1.727    c-4.579,1.996-9.15,4.01-13.729,6.006C297.93,323.149,298.949,324.872,300.119,324.362L300.119,324.362z"
         id="path523"
         style="fill:none;stroke:#000000;stroke-opacity:1" /></g></g><g
     id="g525"
     style="fill:none;stroke:#000000;stroke-opacity:1"><g
       id="g527"
       style="fill:none;stroke:#000000;stroke-opacity:1"><path
         d="M278.672,307.908c7.073-3.077,14.238-5.927,21.312-9.004c1.18-0.513,0.16-2.235-1.01-1.727    c-7.073,3.077-14.238,5.926-21.312,9.004C276.482,306.695,277.502,308.418,278.672,307.908L278.672,307.908z"
         id="path529"
         style="fill:none;stroke:#000000;stroke-opacity:1" /></g></g><g
     id="g531"
     style="fill:none;stroke:#000000;stroke-opacity:1"><g
       id="g533"
       style="fill:none;stroke:#000000;stroke-opacity:1"><path
         d="M275.672,299.908c7.073-3.077,14.238-5.927,21.312-9.004c1.18-0.513,0.16-2.235-1.01-1.727    c-7.073,3.077-14.238,5.926-21.312,9.004C273.482,298.695,274.502,300.418,275.672,299.908L275.672,299.908z"
         id="path535"
         style="fill:none;stroke:#000000;stroke-opacity:1" /></g></g><g
     id="g537"
     style="fill:none;stroke:#000000;stroke-opacity:1"><g
       id="g539"
       style="fill:none;stroke:#000000;stroke-opacity:1"><path
         d="M260.599,298.855c10.033-4.369,20.111-8.632,30.146-13c1.18-0.514,0.16-2.236-1.01-1.727    c-10.033,4.368-20.112,8.631-30.146,13C258.409,297.643,259.429,299.365,260.599,298.855L260.599,298.855z"
         id="path541"
         style="fill:none;stroke:#000000;stroke-opacity:1" /></g></g><g
     id="g543"
     style="fill:none;stroke:#000000;stroke-opacity:1"><g
       id="g545"
       style="fill:none;stroke:#000000;stroke-opacity:1"><path
         d="M358.703,325.196c10.938-4.783,21.727-9.896,32.665-14.679c1.179-0.516,0.16-2.238-1.01-1.727    c-10.938,4.782-21.727,9.896-32.665,14.679C356.515,323.985,357.533,325.708,358.703,325.196L358.703,325.196z"
         id="path547"
         style="fill:none;stroke:#000000;stroke-opacity:1" /></g></g><g
     id="g549"
     style="fill:none;stroke:#000000;stroke-opacity:1"><g
       id="g551"
       style="fill:none;stroke:#000000;stroke-opacity:1"><path
         d="M366.768,316.318c5.19-2.263,8.335-3.633,13.563-5.911c1.18-0.514,0.16-2.236-1.01-1.727    c-5.19,2.262-8.335,3.632-13.563,5.911C364.578,315.105,365.598,316.828,366.768,316.318L366.768,316.318z"
         id="path553"
         style="fill:none;stroke:#000000;stroke-opacity:1" /></g></g><g
     id="g555"
     style="fill:none;stroke:#000000;stroke-opacity:1"><g
       id="g557"
       style="fill:none;stroke:#000000;stroke-opacity:1"><path
         d="M386.768,325.318c5.19-2.263,8.335-3.633,13.563-5.911c1.18-0.514,0.16-2.236-1.01-1.727    c-5.19,2.262-8.335,3.632-13.563,5.911C384.578,324.105,385.598,325.828,386.768,325.318L386.768,325.318z"
         id="path559"
         style="fill:none;stroke:#000000;stroke-opacity:1" /></g></g><g
     id="g561"
     style="fill:none;stroke:#000000;stroke-opacity:1"><g
       id="g563"
       style="fill:none;stroke:#000000;stroke-opacity:1"><path
         d="M58.113,313.671c15.575-6.761,31.424-12.871,47-19.631c1.18-0.512,0.161-2.234-1.01-1.727    c-15.576,6.76-31.424,12.87-47,19.631C55.923,312.456,56.943,314.179,58.113,313.671L58.113,313.671z"
         id="path565"
         style="fill:none;stroke:#000000;stroke-opacity:1" /></g></g><g
     id="g567"
     style="fill:none;stroke:#000000;stroke-opacity:1"><g
       id="g569"
       style="fill:none;stroke:#000000;stroke-opacity:1"><path
         d="M52.005,309.986c14.801-6.379,30.198-11.252,45-17.631c1.181-0.509,0.162-2.231-1.01-1.727    c-14.801,6.379-30.198,11.251-45,17.631C49.814,308.769,50.833,310.491,52.005,309.986L52.005,309.986z"
         id="path571"
         style="fill:none;stroke:#000000;stroke-opacity:1" /></g></g><g
     id="g573"
     style="fill:none;stroke:#000000;stroke-opacity:1"><g
       id="g575"
       style="fill:none;stroke:#000000;stroke-opacity:1"><path
         d="M45.229,307.908c14.593-6.309,29.62-11.552,44.214-17.86c1.181-0.511,0.161-2.232-1.01-1.727    c-14.594,6.308-29.62,11.551-44.214,17.86C43.039,306.692,44.059,308.414,45.229,307.908L45.229,307.908z"
         id="path577"
         style="fill:none;stroke:#000000;stroke-opacity:1" /></g></g><g
     id="g579"
     style="fill:none;stroke:#000000;stroke-opacity:1"><g
       id="g581"
       style="fill:none;stroke:#000000;stroke-opacity:1"><path
         d="M39.86,304.109c14.593-6.309,29.62-11.552,44.214-17.86c1.181-0.511,0.161-2.232-1.01-1.727    c-14.594,6.308-29.62,11.551-44.214,17.86C37.669,302.894,38.689,304.615,39.86,304.109L39.86,304.109z"
         id="path583"
         style="fill:none;stroke:#000000;stroke-opacity:1" /></g></g><g
     id="g585"
     style="fill:none;stroke:#000000;stroke-opacity:1"><g
       id="g587"
       style="fill:none;stroke:#000000;stroke-opacity:1"><path
         d="M35.505,299.794c13.829-5.928,28.383-9.933,42.214-15.86c1.182-0.507,0.162-2.229-1.01-1.727    c-13.83,5.927-28.383,9.932-42.214,15.86C33.313,298.574,34.333,300.297,35.505,299.794L35.505,299.794z"
         id="path589"
         style="fill:none;stroke:#000000;stroke-opacity:1" /></g></g><g
     id="g591"
     style="fill:none;stroke:#000000;stroke-opacity:1"><g
       id="g593"
       style="fill:none;stroke:#000000;stroke-opacity:1"><path
         d="M29.505,296.46c13.338-5.738,27.205-10.122,40.544-15.86c1.182-0.508,0.162-2.23-1.01-1.727    c-13.338,5.738-27.206,10.121-40.544,15.86C27.313,295.241,28.333,296.964,29.505,296.46L29.505,296.46z"
         id="path595"
         style="fill:none;stroke:#000000;stroke-opacity:1" /></g></g><g
     id="g597"
     style="fill:none;stroke:#000000;stroke-opacity:1"><g
       id="g599"
       style="fill:none;stroke:#000000;stroke-opacity:1"><path
         d="M26.582,290.478c10.94-4.614,22.288-8.163,33.228-12.777c1.169-0.493,0.656-2.429-0.531-1.928    c-10.941,4.613-22.288,8.162-33.228,12.777C24.881,289.043,25.395,290.979,26.582,290.478L26.582,290.478z"
         id="path601"
         style="fill:none;stroke:#000000;stroke-opacity:1" /></g></g><g
     id="g603"
     style="fill:none;stroke:#000000;stroke-opacity:1"><g
       id="g605"
       style="fill:none;stroke:#000000;stroke-opacity:1"><path
         d="M73.505,317.863c14.732-6.38,29.808-11.931,44.541-18.311c1.181-0.511,0.161-2.233-1.01-1.727    c-14.733,6.38-29.808,11.93-44.541,18.311C71.314,316.647,72.334,318.37,73.505,317.863L73.505,317.863z"
         id="path607"
         style="fill:none;stroke:#000000;stroke-opacity:1" /></g></g><g
     id="g609"
     style="fill:none;stroke:#000000;stroke-opacity:1"><g
       id="g611"
       style="fill:none;stroke:#000000;stroke-opacity:1"><path
         d="M82.505,318.863c13.659-5.899,27.724-10.794,41.384-16.692c1.181-0.51,0.161-2.232-1.01-1.727    c-13.66,5.898-27.725,10.793-41.384,16.692C80.314,317.646,81.334,319.369,82.505,318.863L82.505,318.863z"
         id="path613"
         style="fill:none;stroke:#000000;stroke-opacity:1" /></g></g><g
     id="g615"
     style="fill:none;stroke:#000000;stroke-opacity:1"><g
       id="g617"
       style="fill:none;stroke:#000000;stroke-opacity:1"><path
         d="M97.639,317.863c11.293-4.878,22.956-8.814,34.25-13.692c1.181-0.51,0.161-2.232-1.01-1.727    c-11.293,4.878-22.957,8.813-34.25,13.692C95.448,316.646,96.468,318.369,97.639,317.863L97.639,317.863z"
         id="path619"
         style="fill:none;stroke:#000000;stroke-opacity:1" /></g></g><g
     id="g621"
     style="fill:none;stroke:#000000;stroke-opacity:1"><g
       id="g623"
       style="fill:none;stroke:#000000;stroke-opacity:1"><path
         d="M28.111,282.835c0.248-0.108,0.56-0.193,0.787-0.345c0.901-0.598,0.35-2.221-0.771-1.827    c-0.098,0.034,0.03-0.019,0.248-0.029c0.168,0.621,0.336,1.242,0.504,1.863c6.013-3.068,12.486-5.452,18.667-8.146    c1.18-0.514,0.16-2.236-1.01-1.727c-6.182,2.694-12.654,5.078-18.667,8.146c-0.88,0.449-0.476,1.913,0.505,1.863    c0.134-0.007,0.191-0.01,0.284-0.042c-0.257-0.609-0.514-1.219-0.771-1.828c-0.228,0.151-0.539,0.236-0.788,0.345    C25.922,281.622,26.941,283.345,28.111,282.835L28.111,282.835z"
         id="path625"
         style="fill:none;stroke:#000000;stroke-opacity:1" /></g></g><g
     id="g627"
     style="fill:none;stroke:#000000;stroke-opacity:1"><g
       id="g629"
       style="fill:none;stroke:#000000;stroke-opacity:1"><path
         d="M320.37,269.012c-4.006,1.771-8.456,6.542-7.084,11.254c0.359,1.236,2.289,0.71,1.928-0.531    c-1.112-3.823,3.022-7.606,6.166-8.996C322.558,270.218,321.538,268.495,320.37,269.012L320.37,269.012z"
         id="path631"
         style="fill:none;stroke:#000000;stroke-opacity:1" /></g></g><g
     id="g633"
     style="fill:none;stroke:#000000;stroke-opacity:1"><g
       id="g635"
       style="fill:none;stroke:#000000;stroke-opacity:1"><path
         d="M323.745,268.637c-5.511,3.644-6.342,10.22-5.9,16.355c0.092,1.278,2.093,1.287,2,0    c-0.384-5.336,0.035-11.405,4.91-14.629C325.825,269.655,324.824,267.923,323.745,268.637L323.745,268.637z"
         id="path637"
         style="fill:none;stroke:#000000;stroke-opacity:1" /></g></g><g
     id="g639"
     style="fill:none;stroke:#000000;stroke-opacity:1"><g
       id="g641"
       style="fill:none;stroke:#000000;stroke-opacity:1"><path
         d="M327.418,267.918c-1.8,1.612-4.394,3.235-5.293,5.584c-0.369,0.964-0.52,1.907-0.567,2.934    c-0.035,0.742,0.399,2.157,0.079,2.833c-0.55,1.159,1.174,2.174,1.727,1.01c0.556-1.17,0.195-2.594,0.194-3.843    c-0.004-3.284,3.075-5.133,5.274-7.104C329.795,268.47,328.375,267.06,327.418,267.918L327.418,267.918z"
         id="path643"
         style="fill:none;stroke:#000000;stroke-opacity:1" /></g></g><g
     id="g645"
     style="fill:none;stroke:#000000;stroke-opacity:1"><g
       id="g647"
       style="fill:none;stroke:#000000;stroke-opacity:1"><path
         d="M330.543,268.043c-1.465,1.68-3.487,2.979-4.406,5.077c-0.512,1.17,1.211,2.188,1.727,1.01    c0.846-1.931,2.743-3.124,4.094-4.673C332.801,268.489,331.393,267.069,330.543,268.043L330.543,268.043z"
         id="path649"
         style="fill:none;stroke:#000000;stroke-opacity:1" /></g></g><g
     id="g651"
     style="fill:none;stroke:#000000;stroke-opacity:1"><g
       id="g653"
       style="fill:none;stroke:#000000;stroke-opacity:1"><path
         d="M331.512,268.87c-0.281,0.462-0.436,0.979-0.601,1.489c-0.398,1.23,1.533,1.753,1.928,0.531    c0.114-0.351,0.206-0.694,0.399-1.011C333.912,268.775,332.182,267.771,331.512,268.87L331.512,268.87z"
         id="path655"
         style="fill:none;stroke:#000000;stroke-opacity:1" /></g></g><g
     id="g657"
     style="fill:none;stroke:#000000;stroke-opacity:1"><g
       id="g659"
       style="fill:none;stroke:#000000;stroke-opacity:1"><path
         d="M141.47,278.495c-1.669,2.6-3.832,4.803-5.844,7.132c-0.839,0.971,0.569,2.392,1.414,1.414    c2.124-2.458,4.395-4.792,6.156-7.536C143.896,278.416,142.164,277.414,141.47,278.495L141.47,278.495z"
         id="path661"
         style="fill:none;stroke:#000000;stroke-opacity:1" /></g></g><g
     id="g663"
     style="fill:none;stroke:#000000;stroke-opacity:1"><g
       id="g665"
       style="fill:none;stroke:#000000;stroke-opacity:1"><path
         d="M142.626,281.293c-1.343,1.343-2.669,2.69-3.823,4.202c-0.332,0.435-0.068,1.118,0.358,1.368    c0.514,0.302,1.038,0.073,1.368-0.358c1.046-1.37,2.295-2.581,3.511-3.798C144.953,281.794,143.539,280.38,142.626,281.293    L142.626,281.293z"
         id="path667"
         style="fill:none;stroke:#000000;stroke-opacity:1" /></g></g><g
     id="g669"
     style="fill:none;stroke:#000000;stroke-opacity:1"><g
       id="g671"
       style="fill:none;stroke:#000000;stroke-opacity:1"><path
         d="M144.137,282.829c-1.38,2.623-3.594,4.63-5.333,7c-0.765,1.042,0.972,2.038,1.727,1.01c1.743-2.376,3.949-4.367,5.333-7    C146.463,282.698,144.737,281.688,144.137,282.829L144.137,282.829z"
         id="path673"
         style="fill:none;stroke:#000000;stroke-opacity:1" /></g></g><g
     id="g675"
     style="fill:none;stroke:#000000;stroke-opacity:1"><g
       id="g677"
       style="fill:none;stroke:#000000;stroke-opacity:1"><path
         d="M148.293,283.627c-2.942,3.015-5.14,6.525-7.156,10.202c-0.621,1.132,1.106,2.141,1.727,1.01    c1.936-3.528,4.019-6.902,6.844-9.798C150.608,284.118,149.195,282.702,148.293,283.627L148.293,283.627z"
         id="path679"
         style="fill:none;stroke:#000000;stroke-opacity:1" /></g></g></svg>